<svg xmlns="http://www.w3.org/2000/svg" width="1929" height="1394" viewBox="0 0 1929 1394" version="1.1"><path d="M 1896.176 2.109 C 1883.431 4.501, 1867.825 14.783, 1823.500 49.989 C 1795.829 71.967, 1787.453 78.028, 1780.486 81.109 C 1776.586 82.834, 1775.973 83.582, 1774.610 88.268 C 1769.792 104.835, 1744.048 148.192, 1702.804 209.200 C 1684.622 236.096, 1671.303 254.796, 1666.979 259.500 C 1665.462 261.150, 1663.938 263.442, 1663.593 264.593 C 1661.531 271.465, 1629.558 296.294, 1617.378 300.481 C 1614.026 301.633, 1613.273 302.536, 1610.987 308.143 C 1604.784 323.360, 1581.117 356.525, 1552.572 390 C 1505.720 444.946, 1462.191 482.597, 1441 486.509 C 1438.328 487.002, 1436.909 488.108, 1435 491.185 C 1428.476 501.703, 1390.702 533.014, 1379.556 537.143 C 1377.059 538.068, 1370.673 546.841, 1344.629 585.126 L 1312.758 631.976 1309.129 629.123 C 1303.163 624.433, 1293.027 618.227, 1262.500 600.571 C 1216.608 574.028, 1197.093 560.468, 1193.984 552.962 C 1192.994 550.572, 1192.153 550, 1189.629 549.999 C 1184.710 549.997, 1167.844 545.622, 1137.500 536.478 C 1095.651 523.866, 1080.577 520.958, 1073.581 524.145 C 1069.680 525.923, 1035.784 521.981, 1021.199 518.053 C 1017.513 517.061, 1015.906 517.279, 1007.266 519.946 C 983.571 527.259, 973.630 528.439, 893 533.506 C 846.086 536.455, 822.232 541.347, 797 553.195 C 784.893 558.879, 781.538 559.377, 778.714 555.907 C 776.952 553.742, 776.808 552.394, 777.278 542.500 C 778.068 525.896, 785.129 500.918, 803.316 450.392 C 806.901 440.432, 811.872 424.397, 814.363 414.759 C 821.942 385.436, 828.533 368.712, 858.015 304 C 887.349 239.612, 895.911 214.462, 900.966 177.831 C 902.130 169.399, 904.639 153.489, 906.541 142.476 C 912.200 109.714, 911.087 96.828, 901.877 88.508 C 894.966 82.264, 882.630 78.481, 871.480 79.186 L 866.515 79.500 865.848 84.199 C 865.141 89.177, 860.875 98.363, 855.756 105.933 C 847.452 118.211, 832.154 134.078, 790.434 173.685 C 780.497 183.118, 769.697 194.289, 766.434 198.510 C 754.305 214.197, 749.453 219.894, 734.338 236.194 C 719.061 252.669, 699.299 271.316, 693.156 275.052 C 691.420 276.107, 690 277.463, 690 278.066 C 690 282.256, 666.449 308.830, 655.820 316.632 C 651.991 319.443, 651 320.763, 651 323.057 C 651 333.244, 635.098 353.941, 614.954 369.971 C 599.120 382.572, 572.385 397.652, 561.598 400.066 C 556.152 401.284, 555.420 401.175, 538.722 396.659 C 490.991 383.749, 439.612 375.248, 425.456 377.918 C 422.216 378.530, 418.791 378.490, 415.562 377.804 C 411.989 377.044, 406.809 377.103, 396.817 378.017 C 381.044 379.459, 374.291 378.961, 369.502 376.001 C 365.339 373.428, 362.048 366.863, 361.303 359.646 C 360.850 355.260, 360.301 354.003, 358.474 353.170 C 346.628 347.773, 339.074 311.504, 335.529 243 C 334.718 227.325, 333.398 211.499, 332.596 207.832 C 329.074 191.718, 322.098 173.841, 306.516 141 C 287.516 100.955, 282.888 88.854, 280.224 72.250 C 278.380 60.756, 277.907 60.341, 270.295 63.521 C 248.220 72.745, 225.727 124.670, 209.010 205 C 200.555 245.627, 196.386 275.539, 195.560 301.500 C 194.371 338.880, 188.905 378.519, 182.373 397.143 C 180.954 401.189, 179.855 406.318, 179.932 408.540 C 180.384 421.707, 153.924 443.799, 108.380 468.280 C 80.262 483.393, 47.241 496.889, 34.250 498.576 C 29.609 499.179, 29 499.529, 29 501.594 C 29 506.508, 25.456 513.981, 16.846 527.220 C 4.003 546.967, 1.667 552.377, 1.178 563.501 C 0.473 579.569, 4.607 588.711, 38.043 645.029 C 59.033 680.381, 68 696.741, 68 699.678 C 68 700.384, 69.238 701.209, 70.750 701.510 C 85.026 704.355, 95.814 712.079, 137.563 749.350 C 165.594 774.373, 179.664 784.458, 195.444 790.837 C 199.047 792.294, 208.590 794.413, 219 796.068 C 241.916 799.713, 253.477 802.272, 295.500 813.002 C 338.820 824.064, 353.143 827.328, 371.837 830.401 C 393.109 833.897, 402.083 834.419, 406.730 832.430 C 418.588 827.353, 428.752 826.792, 436.574 830.783 C 449.963 837.613, 459.071 858.368, 463.620 892.411 C 465.694 907.940, 466.479 957.534, 465.092 985.500 C 464.465 998.150, 463.670 1015.518, 463.325 1024.095 L 462.699 1039.689 468.329 1040.351 C 482.436 1042.009, 493.262 1049.647, 499.498 1062.342 C 509.972 1083.667, 506.618 1120.817, 491.553 1150.342 C 480.038 1172.908, 464.892 1187.024, 449 1190.003 C 445.975 1190.570, 437.200 1192.777, 429.500 1194.908 C 408.521 1200.715, 401.773 1202.030, 392.630 1202.098 C 377.254 1202.210, 371.782 1198.072, 369.513 1184.612 L 368.858 1180.724 359.679 1181.388 C 330.747 1183.480, 307.540 1191.261, 288.793 1205.155 C 269.127 1219.729, 255.484 1243.732, 253.518 1267.216 C 253.182 1271.222, 252.696 1275.896, 252.437 1277.601 L 251.965 1280.702 260.733 1281.373 C 285.538 1283.272, 338.051 1293.521, 357.713 1300.302 L 364.500 1302.642 370.500 1300.771 C 380.781 1297.565, 394.436 1296.139, 425.500 1295.028 C 442 1294.438, 459.548 1293.469, 464.496 1292.874 C 484.069 1290.521, 498.046 1285.104, 506.508 1276.593 C 515.057 1267.994, 515.390 1266.763, 516.007 1241.500 C 516.501 1221.286, 516.724 1219.160, 518.763 1215.308 C 519.983 1213.002, 522.466 1209.984, 524.280 1208.600 C 527.647 1206.032, 537.287 1203, 542.085 1203 C 545.280 1203, 545.999 1200.542, 546.001 1189.625 C 546.003 1181.660, 548.292 1160.200, 550.603 1146.500 C 553.766 1127.740, 559.372 1109.499, 563.950 1103.071 L 566.063 1100.103 574.281 1103.657 C 578.802 1105.612, 591.725 1111.014, 603 1115.662 C 614.275 1120.311, 626.650 1125.970, 630.500 1128.239 C 647.772 1138.419, 658.700 1154.360, 668.596 1183.810 C 672.156 1194.402, 672.201 1194.751, 673.570 1222 C 674.329 1237.125, 675.486 1251.632, 676.141 1254.238 C 677.209 1258.490, 677.135 1259.193, 675.417 1261.092 C 666.382 1271.075, 614.010 1284.462, 571.039 1287.771 L 561.578 1288.500 560.889 1291.877 C 560.510 1293.735, 559.328 1296.435, 558.262 1297.877 C 555.004 1302.287, 543.437 1307.519, 530.395 1310.483 C 495.481 1318.417, 489.494 1320.571, 483.115 1327.491 C 478.230 1332.791, 477.191 1337.765, 479.415 1345.213 C 480.283 1348.121, 481.783 1351.449, 482.747 1352.609 C 488.754 1359.835, 506.909 1369.863, 526 1376.500 C 560.517 1388.499, 592.457 1393.622, 607.855 1389.628 C 612.605 1388.395, 613.752 1388.444, 619.071 1390.099 C 641.139 1396.968, 676.222 1393.600, 719.923 1380.418 C 744.281 1373.070, 760.915 1366.396, 765.339 1362.196 C 779.859 1348.410, 782.328 1312.301, 772.395 1259 C 769.161 1241.644, 767.081 1233.443, 760.472 1212 C 757.506 1202.375, 754.584 1190.742, 753.978 1186.150 C 750.746 1161.637, 761.354 1144.197, 785.329 1134.605 C 801.722 1128.047, 817.337 1125.646, 858.205 1123.398 L 887.909 1121.764 893.705 1125.942 C 896.892 1128.239, 906.925 1134.983, 916 1140.928 C 940.017 1156.662, 950.489 1167.129, 955.592 1180.500 C 958.528 1188.194, 958.161 1200.652, 954.754 1208.901 L 952.111 1215.301 957.976 1222.401 C 973.676 1241.403, 974.789 1256.430, 961.929 1275.759 C 960.195 1278.367, 949.223 1289.950, 937.548 1301.500 C 919.763 1319.095, 915.808 1323.539, 913.160 1328.910 C 909.286 1336.768, 909.211 1340.084, 912.750 1347.071 C 916.113 1353.710, 923.299 1359.694, 935.866 1366.320 C 951.903 1374.776, 963.663 1377.867, 983.044 1378.719 C 1018.031 1380.258, 1056.954 1368.987, 1108.250 1342.465 L 1119 1336.907 1119 1331.489 C 1119 1323.980, 1115.827 1308.350, 1111.896 1296.497 C 1106.964 1281.623, 1097.296 1263.042, 1075.995 1227.500 C 1048.897 1182.285, 1040.323 1164.479, 1034.367 1141.052 C 1031.005 1127.830, 1029.461 1113.360, 1031.187 1111.256 C 1038.153 1102.761, 1157.123 1061.768, 1197 1054.122 C 1205.205 1052.549, 1236.053 1050.873, 1239.500 1051.813 C 1242.922 1052.746, 1243.263 1053.818, 1244.859 1068.653 C 1245.426 1073.925, 1247.175 1081.685, 1248.983 1086.952 C 1251.761 1095.042, 1251.989 1096.504, 1250.956 1099.632 C 1249.294 1104.669, 1249.546 1122.690, 1251.451 1134.994 C 1254.910 1157.342, 1262.541 1187.472, 1274.085 1224.369 C 1278.824 1239.517, 1279.067 1240.843, 1279.121 1251.892 C 1279.186 1264.963, 1276.852 1277.759, 1272.685 1287.178 C 1268.212 1297.290, 1258.248 1305.915, 1250.965 1305.978 C 1248.856 1305.996, 1247.321 1307.720, 1241.817 1316.250 C 1233.687 1328.850, 1225.933 1344.237, 1223.117 1353.355 C 1220.164 1362.919, 1220.219 1374.033, 1223.250 1380.024 C 1233.825 1400.926, 1279.723 1398.282, 1338.316 1373.394 C 1398.750 1347.724, 1447.215 1310.823, 1458.039 1282.236 C 1465.193 1263.341, 1456.572 1249.023, 1431.570 1238.274 C 1397.724 1223.723, 1380.695 1213.043, 1374.431 1202.439 C 1372.579 1199.306, 1372.078 1197.135, 1372.236 1192.939 C 1372.371 1189.345, 1371.384 1183.768, 1369.327 1176.500 C 1362.949 1153.963, 1355.295 1111.577, 1352.624 1084 C 1351.031 1067.543, 1349.556 1063.039, 1340.380 1046.609 C 1332.874 1033.167, 1325.210 1021.756, 1319.040 1014.834 L 1313.991 1009.169 1317.745 1006.913 C 1319.810 1005.672, 1330.275 997.837, 1341 989.502 C 1369.081 967.678, 1382.586 959.037, 1388.656 959.010 C 1390.479 959.002, 1390.917 958.238, 1391.489 954.078 C 1392.912 943.734, 1399.386 933.991, 1421.526 908.874 C 1433.530 895.255, 1436.487 891.443, 1441.371 883.295 C 1450.189 868.582, 1452.668 853.484, 1449.537 833.563 C 1445.881 810.301, 1439.159 792.277, 1420.022 754.428 C 1405.625 725.952, 1400.658 714.873, 1399.595 708.860 C 1399.158 706.392, 1398.309 705.053, 1396.959 704.699 C 1392.013 703.406, 1388.349 686.270, 1389.431 669.500 C 1391.406 638.899, 1399.438 613.627, 1411.427 600.293 C 1419.260 591.580, 1427.437 589.135, 1437.412 592.522 L 1441.893 594.043 1463.197 582.766 C 1474.913 576.563, 1489.900 568.952, 1496.500 565.852 C 1507.459 560.704, 1523.184 555, 1526.416 555 C 1527.200 555, 1527.967 553.290, 1528.321 550.750 C 1530.521 534.976, 1556.813 488.888, 1577.274 464.942 C 1586.963 453.602, 1597.788 445, 1602.369 445 C 1603.176 445, 1604.869 443.312, 1606.131 441.250 C 1615.014 426.729, 1660.780 371.328, 1681.511 350 C 1687.124 344.225, 1712.630 314.750, 1738.191 284.500 C 1783.528 230.846, 1784.680 229.378, 1785.263 224.500 C 1786.848 211.242, 1793.670 201.158, 1814.157 181.789 C 1829.454 167.326, 1836.297 159.361, 1840.377 151.269 C 1843.526 145.023, 1845.965 135.270, 1845.985 128.840 C 1846.004 122.951, 1847.756 120.697, 1871.325 96.247 C 1902.609 63.792, 1915.523 48.209, 1922.965 33.935 C 1930.132 20.187, 1930.287 13.093, 1923.547 7.176 C 1918.681 2.903, 1905.222 0.412, 1896.176 2.109 M 788.303 233.750 C 718.458 303.333, 688.821 335.973, 662.316 372.500 C 652.918 385.451, 640.232 405.410, 633.432 417.944 L 626.680 430.388 635.613 438.944 C 661.838 464.063, 683.930 476.892, 701.093 476.967 C 723.379 477.064, 740.344 461.512, 761.769 421.342 C 766.503 412.467, 767.864 408.887, 768.421 403.842 C 770.649 383.664, 778.214 365.022, 807.517 307.500 C 828.153 266.991, 836.484 248.779, 842.049 232.010 C 846.952 217.238, 849 207.026, 849 197.358 C 849 189.938, 846.533 178, 844.999 178 C 844.594 178, 819.080 203.087, 788.303 233.750 M 268.016 183.644 C 253.082 217.035, 237.494 263.343, 230.869 294 C 227.936 307.572, 227.514 335.323, 230.156 340.932 C 231.655 344.116, 231.647 344.659, 230.046 348.432 C 226.647 356.441, 224.981 367.846, 224.923 383.500 C 224.854 402.260, 228.593 418.607, 234.092 423.584 C 235.926 425.243, 236 425.202, 236 422.521 C 236 417.380, 238.422 411.578, 242.105 407.895 C 244.745 405.255, 248.775 403.079, 256.629 400.052 C 274.412 393.200, 281.183 387.713, 286.882 375.537 C 292.642 363.232, 295.005 347.202, 294.990 320.526 C 294.965 272.600, 290.181 233.214, 280.837 204 C 278.538 196.814, 272.103 180.987, 270.933 179.644 C 270.523 179.173, 269.210 180.973, 268.016 183.644 M 443 427.435 C 436.208 428.881, 431 430.614, 431 431.428 C 431 431.691, 431.521 433.050, 432.159 434.449 C 433.807 438.067, 431.240 440.537, 423.273 442.998 C 410.761 446.862, 390.857 448.171, 339.500 448.507 C 288.472 448.841, 276.987 449.586, 246.068 454.561 C 174.816 466.028, 110.623 489.600, 71.148 518.792 C 61.900 525.632, 45.926 541.284, 43.610 545.777 C 36.334 559.891, 42.305 609.265, 53.416 626.867 C 56.095 631.111, 60.494 635, 62.616 635 C 63.356 635, 64.216 636.237, 64.526 637.750 C 66.923 649.424, 71.866 657.802, 82 667.361 C 85.814 670.959, 96.261 679.328, 105.217 685.960 C 130.946 705.011, 136.941 710.065, 141.672 716.692 C 144.104 720.098, 148.590 725.166, 151.641 727.955 C 183.109 756.715, 272.589 785.767, 352.228 793.080 C 369.627 794.678, 404.167 793.831, 413.689 791.573 L 420.877 789.868 429.689 792.881 C 453.949 801.177, 471.615 796.603, 504.500 773.512 C 521.491 761.581, 530.403 756.860, 537.163 756.210 L 541.826 755.762 542.417 761.131 C 542.742 764.084, 542.894 768.075, 542.754 770 C 542.510 773.364, 542.694 773.569, 547.500 775.274 C 551.502 776.694, 554.595 776.953, 563 776.572 C 575.429 776.007, 582.700 774.511, 601.500 768.651 C 615.095 764.413, 620.545 762.489, 658.500 748.533 C 668.400 744.893, 681.460 740.623, 687.523 739.044 C 703.449 734.897, 711.084 730.953, 719.595 722.475 C 731.608 710.508, 737.630 694.901, 738.686 673 C 740.679 631.649, 720.534 575.039, 688.578 532.191 C 673.685 512.221, 656.110 496.076, 640.195 487.744 C 629.556 482.174, 623.673 480.155, 614.864 479.049 C 609.427 478.366, 604.099 476.329, 587.797 468.700 C 537.838 445.319, 504.393 433.070, 478.091 428.520 C 465.081 426.270, 450.585 425.822, 443 427.435 M 261.180 525.250 C 254.018 546.882, 252.832 552.435, 252.373 566.500 C 251.981 578.510, 252.122 579.842, 254.224 583.991 C 255.476 586.461, 258.075 589.541, 260 590.836 C 263.126 592.938, 264.355 593.143, 271.500 592.760 C 295.678 591.462, 323.053 569.369, 327 547.968 C 327.847 543.378, 327.693 541.251, 326.098 535.468 C 322.392 522.039, 321.847 521, 318.505 520.997 C 316.852 520.995, 306.500 519.202, 295.500 517.012 C 284.500 514.823, 273.190 513.024, 270.368 513.016 L 265.235 513 261.180 525.250 M 508.301 521 C 492.231 530.217, 482.677 548.690, 485.903 564.307 C 487.745 573.229, 491.678 580.518, 498.128 586.968 C 505.448 594.288, 514.440 598.719, 526.213 600.805 L 535.277 602.412 538.569 598.491 C 547.213 588.195, 552.418 572.473, 551.808 558.500 C 551.322 547.374, 548.356 541.214, 540.051 534.093 C 531.059 526.382, 517.879 517.987, 514.800 518.009 C 514.085 518.015, 511.160 519.361, 508.301 521 M 960.500 580.118 C 952.800 580.573, 933.764 582.118, 918.197 583.552 C 892.201 585.948, 889.697 586.031, 887.482 584.580 C 883.508 581.976, 877.237 582.607, 870.770 586.262 C 862.266 591.067, 855.746 597.175, 838.180 616.792 C 816.334 641.188, 811.481 645.551, 804.595 646.980 C 787.829 650.461, 775.639 672.613, 768.541 712.500 C 767.660 717.450, 766.567 726.432, 766.111 732.460 C 765.535 740.080, 764.859 743.659, 763.891 744.208 C 763.126 744.641, 755.300 749.342, 746.500 754.654 C 695.987 785.146, 681.702 793.544, 674.500 796.982 C 664.511 801.750, 646.697 806.164, 624 809.495 C 584.692 815.264, 579.022 816.240, 568.026 819.130 C 535.807 827.599, 518.925 843.035, 513.382 869.094 C 510.459 882.835, 511.662 935.654, 515.479 961.183 C 521.941 1004.397, 538.853 1030.587, 574.141 1052.028 C 588.728 1060.891, 624.440 1077, 629.501 1077 C 637.316 1077, 652.967 1050.674, 669.072 1010.437 C 675.165 995.213, 681.707 975.685, 682.614 970.013 L 683.256 966 689.062 966 C 692.256 966, 698.034 966.666, 701.901 967.479 C 718.692 971.011, 725.359 977.275, 734.662 998.258 C 737.960 1005.696, 739.004 1009.294, 739.016 1013.270 C 739.048 1023.939, 746.255 1050.146, 756.245 1075.918 C 762.870 1093.011, 769.819 1097.945, 790.375 1100.153 C 821.324 1103.478, 873.054 1088.230, 907.474 1065.638 C 933.552 1048.521, 947.117 1034.422, 959 1012.086 C 968.760 993.741, 975.172 988.501, 987.041 989.172 C 995.056 989.625, 1003.783 993.646, 1022.500 1005.511 C 1064.527 1032.153, 1089.920 1036.425, 1132.443 1024.010 C 1158.333 1016.451, 1187.343 1006.007, 1205.395 997.745 C 1218.861 991.582, 1223.013 988.941, 1225.286 985.093 C 1227.370 981.565, 1234.307 976.371, 1242.500 972.202 C 1250.790 967.985, 1252.794 967.203, 1284.500 955.805 C 1299.900 950.268, 1318.536 942.870, 1325.914 939.364 C 1362.969 921.752, 1381.378 901.298, 1384.963 873.753 C 1385.483 869.764, 1386.401 856.150, 1387.003 843.500 C 1388.738 807.090, 1386.373 783.564, 1379.643 770.282 C 1376.318 763.720, 1370.095 758.199, 1365.129 757.405 C 1361.468 756.819, 1361.201 756.539, 1360.690 752.727 C 1359.652 744.987, 1353.668 739.844, 1343.674 738.104 C 1340.188 737.497, 1330.488 737, 1322.118 737 C 1310.785 737, 1306.185 736.630, 1304.098 735.551 C 1298.725 732.772, 1288.357 719.881, 1263.606 685.207 C 1239.615 651.595, 1234.142 645.484, 1218.920 635.305 C 1169.059 601.963, 1115.454 584.926, 1045 580.028 C 1028.233 578.862, 980.918 578.913, 960.500 580.118 M 234.296 617.534 C 215.585 622.574, 181.313 640.265, 173.609 648.860 C 169.769 653.143, 173.294 666.429, 185.405 693.326 C 189.076 701.480, 192.331 709.404, 192.637 710.934 C 193.165 713.574, 193.601 713.773, 201.217 714.850 C 205.630 715.475, 224.599 719.623, 243.371 724.069 C 282.669 733.377, 300.405 737.222, 314.500 739.490 C 373.767 749.025, 406 742.982, 417.208 720.235 C 420.104 714.358, 420.540 712.406, 420.837 704.004 C 421.022 698.752, 420.752 692.137, 420.237 689.304 C 419.373 684.552, 419.487 683.967, 421.710 681.745 L 424.119 679.336 415.810 672.378 C 411.239 668.552, 406.600 664.012, 405.500 662.290 C 403.059 658.468, 401.665 658.040, 391.500 657.982 C 378.304 657.907, 357.907 654.621, 341.500 649.926 C 331.566 647.083, 324.085 644.419, 283.733 629.354 C 245.657 615.138, 244.350 614.825, 234.296 617.534" stroke="none" fill="#040404" fill-rule="evenodd"/><path d="M 788.303 233.750 C 718.458 303.333, 688.821 335.973, 662.316 372.500 C 652.918 385.451, 640.232 405.410, 633.432 417.944 L 626.680 430.388 635.613 438.944 C 661.838 464.063, 683.930 476.892, 701.093 476.967 C 723.379 477.064, 740.344 461.512, 761.769 421.342 C 766.503 412.467, 767.864 408.887, 768.421 403.842 C 770.649 383.664, 778.214 365.022, 807.517 307.500 C 828.153 266.991, 836.484 248.779, 842.049 232.010 C 846.952 217.238, 849 207.026, 849 197.358 C 849 189.938, 846.533 178, 844.999 178 C 844.594 178, 819.080 203.087, 788.303 233.750 M 268.016 183.644 C 253.082 217.035, 237.494 263.343, 230.869 294 C 227.936 307.572, 227.514 335.323, 230.156 340.932 C 231.655 344.116, 231.647 344.659, 230.046 348.432 C 226.647 356.441, 224.981 367.846, 224.923 383.500 C 224.854 402.260, 228.593 418.607, 234.092 423.584 C 235.926 425.243, 236 425.202, 236 422.521 C 236 417.380, 238.422 411.578, 242.105 407.895 C 244.745 405.255, 248.775 403.079, 256.629 400.052 C 274.412 393.200, 281.183 387.713, 286.882 375.537 C 292.642 363.232, 295.005 347.202, 294.990 320.526 C 294.965 272.600, 290.181 233.214, 280.837 204 C 278.538 196.814, 272.103 180.987, 270.933 179.644 C 270.523 179.173, 269.210 180.973, 268.016 183.644 M 443 427.435 C 436.208 428.881, 431 430.614, 431 431.428 C 431 431.691, 431.521 433.050, 432.159 434.449 C 433.807 438.067, 431.240 440.537, 423.273 442.998 C 410.761 446.862, 390.857 448.171, 339.500 448.507 C 288.472 448.841, 276.987 449.586, 246.068 454.561 C 174.816 466.028, 110.623 489.600, 71.148 518.792 C 61.900 525.632, 45.926 541.284, 43.610 545.777 C 36.334 559.891, 42.305 609.265, 53.416 626.867 C 56.095 631.111, 60.494 635, 62.616 635 C 63.356 635, 64.216 636.237, 64.526 637.750 C 66.923 649.424, 71.866 657.802, 82 667.361 C 85.814 670.959, 96.261 679.328, 105.217 685.960 C 130.946 705.011, 136.941 710.065, 141.672 716.692 C 144.104 720.098, 148.590 725.166, 151.641 727.955 C 183.109 756.715, 272.589 785.767, 352.228 793.080 C 369.627 794.678, 404.167 793.831, 413.689 791.573 L 420.877 789.868 429.689 792.881 C 453.949 801.177, 471.615 796.603, 504.500 773.512 C 521.491 761.581, 530.403 756.860, 537.163 756.210 L 541.826 755.762 542.417 761.131 C 542.742 764.084, 542.894 768.075, 542.754 770 C 542.510 773.364, 542.694 773.569, 547.500 775.274 C 551.502 776.694, 554.595 776.953, 563 776.572 C 575.429 776.007, 582.700 774.511, 601.500 768.651 C 615.095 764.413, 620.545 762.489, 658.500 748.533 C 668.400 744.893, 681.460 740.623, 687.523 739.044 C 703.449 734.897, 711.084 730.953, 719.595 722.475 C 731.608 710.508, 737.630 694.901, 738.686 673 C 740.679 631.649, 720.534 575.039, 688.578 532.191 C 673.685 512.221, 656.110 496.076, 640.195 487.744 C 629.556 482.174, 623.673 480.155, 614.864 479.049 C 609.427 478.366, 604.099 476.329, 587.797 468.700 C 537.838 445.319, 504.393 433.070, 478.091 428.520 C 465.081 426.270, 450.585 425.822, 443 427.435 M 261.180 525.250 C 254.018 546.882, 252.832 552.435, 252.373 566.500 C 251.981 578.510, 252.122 579.842, 254.224 583.991 C 255.476 586.461, 258.075 589.541, 260 590.836 C 263.126 592.938, 264.355 593.143, 271.500 592.760 C 295.678 591.462, 323.053 569.369, 327 547.968 C 327.847 543.378, 327.693 541.251, 326.098 535.468 C 322.392 522.039, 321.847 521, 318.505 520.997 C 316.852 520.995, 306.500 519.202, 295.500 517.012 C 284.500 514.823, 273.190 513.024, 270.368 513.016 L 265.235 513 261.180 525.250 M 508.301 521 C 492.231 530.217, 482.677 548.690, 485.903 564.307 C 487.745 573.229, 491.678 580.518, 498.128 586.968 C 505.448 594.288, 514.440 598.719, 526.213 600.805 L 535.277 602.412 538.569 598.491 C 547.213 588.195, 552.418 572.473, 551.808 558.500 C 551.322 547.374, 548.356 541.214, 540.051 534.093 C 531.059 526.382, 517.879 517.987, 514.800 518.009 C 514.085 518.015, 511.160 519.361, 508.301 521 M 960.500 580.118 C 952.800 580.573, 933.764 582.118, 918.197 583.552 C 892.201 585.948, 889.697 586.031, 887.482 584.580 C 883.508 581.976, 877.237 582.607, 870.770 586.262 C 862.266 591.067, 855.746 597.175, 838.180 616.792 C 816.334 641.188, 811.481 645.551, 804.595 646.980 C 787.829 650.461, 775.639 672.613, 768.541 712.500 C 767.660 717.450, 766.567 726.432, 766.111 732.460 C 765.535 740.080, 764.859 743.659, 763.891 744.208 C 763.126 744.641, 755.300 749.342, 746.500 754.654 C 695.987 785.146, 681.702 793.544, 674.500 796.982 C 664.511 801.750, 646.697 806.164, 624 809.495 C 584.692 815.264, 579.022 816.240, 568.026 819.130 C 535.807 827.599, 518.925 843.035, 513.382 869.094 C 510.459 882.835, 511.662 935.654, 515.479 961.183 C 521.941 1004.397, 538.853 1030.587, 574.141 1052.028 C 588.728 1060.891, 624.440 1077, 629.501 1077 C 637.316 1077, 652.967 1050.674, 669.072 1010.437 C 675.165 995.213, 681.707 975.685, 682.614 970.013 L 683.256 966 689.062 966 C 692.256 966, 698.034 966.666, 701.901 967.479 C 718.692 971.011, 725.359 977.275, 734.662 998.258 C 737.960 1005.696, 739.004 1009.294, 739.016 1013.270 C 739.048 1023.939, 746.255 1050.146, 756.245 1075.918 C 762.870 1093.011, 769.819 1097.945, 790.375 1100.153 C 821.324 1103.478, 873.054 1088.230, 907.474 1065.638 C 933.552 1048.521, 947.117 1034.422, 959 1012.086 C 968.760 993.741, 975.172 988.501, 987.041 989.172 C 995.056 989.625, 1003.783 993.646, 1022.500 1005.511 C 1064.527 1032.153, 1089.920 1036.425, 1132.443 1024.010 C 1158.333 1016.451, 1187.343 1006.007, 1205.395 997.745 C 1218.861 991.582, 1223.013 988.941, 1225.286 985.093 C 1227.370 981.565, 1234.307 976.371, 1242.500 972.202 C 1250.790 967.985, 1252.794 967.203, 1284.500 955.805 C 1299.900 950.268, 1318.536 942.870, 1325.914 939.364 C 1362.969 921.752, 1381.378 901.298, 1384.963 873.753 C 1385.483 869.764, 1386.401 856.150, 1387.003 843.500 C 1388.738 807.090, 1386.373 783.564, 1379.643 770.282 C 1376.318 763.720, 1370.095 758.199, 1365.129 757.405 C 1361.468 756.819, 1361.201 756.539, 1360.690 752.727 C 1359.652 744.987, 1353.668 739.844, 1343.674 738.104 C 1340.188 737.497, 1330.488 737, 1322.118 737 C 1310.785 737, 1306.185 736.630, 1304.098 735.551 C 1298.725 732.772, 1288.357 719.881, 1263.606 685.207 C 1239.615 651.595, 1234.142 645.484, 1218.920 635.305 C 1169.059 601.963, 1115.454 584.926, 1045 580.028 C 1028.233 578.862, 980.918 578.913, 960.500 580.118 M 234.296 617.534 C 215.585 622.574, 181.313 640.265, 173.609 648.860 C 169.769 653.143, 173.294 666.429, 185.405 693.326 C 189.076 701.480, 192.331 709.404, 192.637 710.934 C 193.165 713.574, 193.601 713.773, 201.217 714.850 C 205.630 715.475, 224.599 719.623, 243.371 724.069 C 282.669 733.377, 300.405 737.222, 314.500 739.490 C 373.767 749.025, 406 742.982, 417.208 720.235 C 420.104 714.358, 420.540 712.406, 420.837 704.004 C 421.022 698.752, 420.752 692.137, 420.237 689.304 C 419.373 684.552, 419.487 683.967, 421.710 681.745 L 424.119 679.336 415.810 672.378 C 411.239 668.552, 406.600 664.012, 405.500 662.290 C 403.059 658.468, 401.665 658.040, 391.500 657.982 C 378.304 657.907, 357.907 654.621, 341.500 649.926 C 331.566 647.083, 324.085 644.419, 283.733 629.354 C 245.657 615.138, 244.350 614.825, 234.296 617.534" stroke="none" fill="#fbfbfb" fill-rule="evenodd"/></svg>