<svg xmlns="http://www.w3.org/2000/svg" width="840" height="800" viewBox="0 0 840 800" version="1.1"><path d="M 715.226 56.395 C 703.083 75.838, 696.290 85.297, 695.029 84.518 C 694.527 84.208, 693.808 81.901, 693.432 79.393 L 692.748 74.833 688.808 83.666 C 684.934 92.352, 677.248 114.178, 674.960 122.990 L 673.794 127.479 671.426 124.509 C 670.123 122.876, 668.784 120.293, 668.449 118.770 C 668.115 117.246, 667.515 116, 667.117 116 C 665.674 116, 658.055 152.734, 657.991 160 C 657.979 161.375, 657.575 163.122, 657.094 163.883 C 656.357 165.046, 655.859 165.014, 653.965 163.688 C 652.726 162.820, 650.932 160.920, 649.978 159.466 L 648.243 156.822 645.623 163.679 C 640.683 176.606, 637.920 189.716, 637.293 203.205 C 636.744 215.002, 636.574 215.843, 634.915 214.955 C 633.933 214.429, 632.568 212.448, 631.883 210.553 C 628.750 201.888, 628.121 213.004, 630.500 235 C 632.299 251.632, 632.379 257, 630.829 257 C 630.184 257, 627.757 255.017, 625.435 252.593 L 621.213 248.187 620.606 251.218 C 619.501 256.743, 619.975 264.660, 622 274.500 C 624.003 284.234, 624.659 294.992, 623.250 295.009 C 622.837 295.014, 621.226 293.551, 619.670 291.759 L 616.840 288.500 617.479 292 C 617.831 293.925, 618.813 299.325, 619.662 304 C 621.527 314.272, 620.976 332.932, 618.581 340.649 C 616.847 346.235, 609.312 358.311, 608.048 357.530 C 607.620 357.265, 606.748 354.450, 606.110 351.274 C 605.472 348.098, 603.851 342.823, 602.506 339.552 C 601.162 336.281, 600.274 333.393, 600.533 333.134 C 600.791 332.875, 603.027 333.127, 605.501 333.693 C 608.752 334.437, 609.999 334.414, 609.997 333.611 C 609.992 331.374, 605.102 314.368, 603.178 309.897 C 602.088 307.365, 599.813 303.718, 598.121 301.791 C 594.730 297.928, 594.933 297, 599.167 297 C 602.531 297, 602.710 295.754, 600.444 288.122 C 598.830 282.687, 593.333 275.558, 589.922 274.475 C 586.129 273.271, 587.912 271.730, 592.500 272.247 C 596.440 272.691, 597 272.517, 597 270.844 C 597 265.160, 587.698 253.481, 579.999 249.500 C 576.317 247.596, 576.973 246.289, 581.846 245.821 L 585.193 245.500 581.676 241.069 C 576.937 235.097, 568.232 229.419, 561.509 227.915 C 558.479 227.236, 556 226.336, 556 225.913 C 556 224.414, 561.306 221, 563.635 221 C 567.688 221, 566.242 219.239, 560.250 216.879 C 555.387 214.963, 552.548 214.605, 541.849 214.557 C 530.278 214.505, 529.275 214.355, 530.104 212.806 C 530.603 211.874, 531.456 210.836, 532 210.500 C 532.544 210.164, 533.493 208.947, 534.109 207.796 C 535.226 205.710, 535.191 205.705, 522.365 206.294 C 511.028 206.814, 498.252 209.024, 491.503 211.632 C 489.536 212.392, 489.533 212.359, 491.340 209.452 C 492.349 207.828, 494.598 205.216, 496.337 203.647 L 499.500 200.793 493.536 201.495 C 480.229 203.062, 462.683 210.743, 451.112 220.067 C 447.647 222.859, 444.586 224.919, 444.310 224.644 C 443.436 223.769, 445.071 218.186, 446.564 216.947 C 449.377 214.612, 447.913 214.198, 441.853 215.611 C 423.748 219.835, 410.538 231.800, 393.309 259.579 C 392.266 261.261, 392.118 261.003, 392.118 257.500 C 392.119 255.300, 392.471 251.363, 392.901 248.750 C 393.331 246.138, 393.417 244.026, 393.091 244.057 C 392.202 244.143, 386.493 251.878, 375.440 267.975 C 365.247 282.819, 354.575 295.105, 349.093 298.307 C 347.392 299.300, 346 299.853, 346 299.535 C 346 299.217, 348.174 296.154, 350.830 292.729 C 363.783 276.027, 370.173 259.453, 372.458 236.633 L 373.045 230.766 368.316 231.475 C 351.972 233.926, 330.017 243.640, 315.155 254.997 C 306.632 261.509, 305.661 262.003, 304.121 260.609 C 301.302 258.058, 291.956 254.351, 283.500 252.429 C 277.682 251.107, 271.546 250.623, 261 250.655 C 244.285 250.704, 232.268 252.641, 221.174 257.073 C 217.145 258.683, 213.483 260, 213.036 260 C 212.588 260, 211.941 258.501, 211.598 256.669 C 210.589 251.291, 203.655 237.947, 198.757 231.954 C 196.263 228.904, 191.782 224.566, 188.799 222.313 C 183.092 218.004, 171.987 212, 169.725 212 C 168.951 212, 166.834 216.219, 164.667 222.079 C 155.492 246.888, 155.737 261.104, 165.812 288.418 L 168.732 296.335 163.023 303.135 C 151.131 317.298, 146.978 329.448, 147.035 349.910 C 147.054 356.834, 147.720 366.100, 148.515 370.500 C 149.310 374.900, 149.970 378.769, 149.980 379.097 C 149.991 379.426, 145.045 379.978, 138.988 380.324 C 127.748 380.968, 107.884 384.536, 98 387.688 L 92.500 389.442 111.500 390.112 C 127.408 390.673, 154.633 393.300, 155.711 394.378 C 155.878 394.545, 148.249 397.258, 138.757 400.408 C 122.492 405.804, 108.480 411.551, 114 410.560 C 115.375 410.314, 123.108 409.602, 131.186 408.979 C 146.327 407.812, 172.099 408.908, 177.157 410.934 C 179.075 411.703, 179.161 411.885, 177.627 411.937 C 174.153 412.054, 155.564 418.770, 147 423.003 L 138.500 427.203 145.129 426.586 C 177.899 423.536, 194.109 423.222, 196.082 425.599 C 198.673 428.720, 208.958 436.060, 216.264 440.001 C 234.599 449.891, 256.743 450.641, 274.229 441.965 C 277.588 440.299, 280.647 439.287, 281.028 439.718 C 281.409 440.148, 282.492 444.550, 283.435 449.500 C 289.590 481.804, 298.752 509.213, 316.149 547.362 C 333.410 585.214, 340.581 607.115, 342.928 629.149 C 344.320 642.214, 344.582 671.883, 343.539 698.223 L 342.758 717.947 337.840 721.103 C 328.198 727.290, 322.697 736.739, 321.407 749.332 L 320.741 755.834 324.620 756.919 C 337.216 760.440, 353.171 760.759, 364.500 757.717 L 369.500 756.374 370.692 740.437 C 372.856 711.516, 375.958 655.964, 377.027 627 C 380.317 537.861, 402.130 457.463, 430.035 431.628 C 437.358 424.848, 443.715 421.849, 452 421.265 C 457.637 420.867, 458.962 421.121, 461.976 423.177 C 466.261 426.099, 469.649 430.997, 471.121 436.401 C 473.753 446.055, 469.219 472.623, 463.119 483.300 C 457.464 493.195, 454.396 505.146, 454.866 515.446 L 455 518.392 458.298 515.196 C 460.111 513.438, 462.314 512, 463.193 512 C 464.624 512, 464.592 512.636, 462.895 518.089 C 461.853 521.438, 461 526.115, 461 528.481 L 461 532.784 464.682 530.907 C 466.707 529.875, 468.490 529.157, 468.645 529.312 C 468.800 529.467, 468.064 533.808, 467.009 538.958 C 465.462 546.507, 465.292 549.265, 466.134 553.187 L 467.177 558.052 470.623 555.026 C 472.519 553.362, 474.901 552, 475.918 552 C 477.657 552, 477.679 552.251, 476.290 556.250 C 475.430 558.728, 475.001 562.483, 475.261 565.257 C 475.669 569.601, 480.048 579.760, 483.503 584.378 C 484.858 586.189, 485.020 586.161, 488.080 583.586 C 489.824 582.118, 491.758 581.073, 492.376 581.263 C 494.864 582.028, 497.464 589.567, 497.828 597.068 L 498.195 604.636 492.571 612.895 C 479.195 632.539, 470.648 655.427, 457.990 705.500 L 453.693 722.500 447.596 725.518 C 438.678 729.932, 433.948 737.777, 431.562 752.113 L 430.961 755.725 437.230 757.580 C 447.702 760.679, 473.903 759.827, 479.693 756.200 C 480.372 755.775, 481.361 750.781, 481.988 744.617 C 484.483 720.092, 491.073 697.431, 502.424 674.349 C 512.715 653.421, 523.972 636.724, 544.456 612 C 562.461 590.268, 570.160 575.946, 570.235 564.045 C 570.287 555.644, 568.669 550.668, 564.932 547.744 C 562.232 545.631, 562.086 545.191, 563.024 541.978 C 563.582 540.065, 564.701 534.450, 565.510 529.500 C 566.937 520.769, 567.109 520.398, 571.241 517.082 C 578.016 511.644, 594.084 495.167, 600.430 487.147 C 608.837 476.524, 619.750 460.105, 626.953 447.244 C 632.347 437.611, 633.854 435.693, 637.856 433.369 C 644.609 429.448, 653.814 422.217, 655.092 419.828 C 656.170 417.815, 656.017 417.773, 648.957 418.172 C 643.636 418.473, 642.181 418.305, 643.467 417.541 C 652.779 412.006, 663.766 404.067, 669.632 398.635 C 676.289 392.471, 688 378.385, 688 376.543 C 688 376.092, 685.065 376.024, 681.479 376.392 L 674.958 377.060 685.322 366.780 C 691.804 360.351, 697.454 353.624, 700.401 348.823 C 705.252 340.924, 711.258 327.164, 712.535 321.024 L 713.258 317.548 708.680 322.061 C 704.270 326.409, 694.350 332.876, 696.599 329.937 C 697.204 329.147, 699.947 325.575, 702.695 322 C 715.046 305.930, 722.989 292.033, 727.496 278.606 C 731.478 266.745, 731.053 265.837, 724.374 271.941 C 721.280 274.769, 718.555 276.888, 718.317 276.650 C 718.079 276.413, 719.557 273.604, 721.601 270.410 C 727.025 261.930, 732.498 249.754, 735.495 239.495 C 738.365 229.671, 740.066 213, 738.198 213 C 737.594 213, 736.740 213.628, 736.300 214.396 C 735.295 216.151, 725.739 224.072, 725.235 223.569 C 725.030 223.364, 726.473 220.954, 728.442 218.214 C 730.410 215.474, 733.793 209.451, 735.958 204.831 C 741.749 192.474, 747.713 168.028, 743.718 173.023 C 742.091 175.059, 736.939 179, 735.906 179 C 735.452 179, 736.619 175.963, 738.498 172.250 C 740.378 168.537, 742.640 162.800, 743.525 159.500 C 745.185 153.312, 746.798 133, 745.630 133 C 745.268 133, 743.665 134.462, 742.069 136.249 C 740.472 138.036, 738.902 139.235, 738.580 138.913 C 738.258 138.592, 738.921 135.667, 740.052 132.414 C 743.253 123.210, 747.957 103.200, 748.645 95.858 C 749.012 91.935, 748.751 86.480, 748.007 82.535 L 746.746 75.854 743.575 78.927 C 741.832 80.617, 740.153 82, 739.846 82 C 739.539 82, 739.004 78.963, 738.657 75.250 C 737.521 63.085, 732.498 48.354, 727.395 42.223 L 725.500 39.945 715.226 56.395 M 197.363 312.466 C 187.755 317.329, 184.102 325.695, 183.267 344.750 L 182.730 357 187.236 357 L 191.742 357 192.419 351.901 C 193.833 341.238, 197.769 336, 204.369 336 C 210.429 336, 212.833 339.622, 213.710 350.075 L 214.290 357 221.032 357 L 227.774 357 228.211 349.750 C 228.926 337.861, 227.379 326.272, 224.245 320.045 C 220.491 312.584, 217.526 310.644, 209.218 310.214 C 203.543 309.921, 201.703 310.270, 197.363 312.466 M 291.180 311.682 C 282.214 316.100, 275 335.251, 275 354.631 L 275 361 279.371 361 L 283.742 361 284.437 354.855 C 285.347 346.810, 287.516 341.585, 291.250 338.443 C 295.049 335.246, 298.598 335.553, 301.401 339.321 C 303.107 341.613, 303.565 343.909, 303.847 351.571 C 304.148 359.782, 304.421 361, 305.957 361 C 306.927 361, 309.809 361.286, 312.360 361.636 L 317 362.272 316.985 349.386 C 316.963 329.973, 312.772 316.272, 305.500 311.837 C 301.796 309.578, 295.585 309.511, 291.180 311.682 M 240.229 346.171 C 239.460 346.940, 239 350.423, 239 355.482 C 239 362.573, 238.231 366.997, 235.476 375.746 C 234.769 377.991, 234.772 377.992, 239.121 376.457 C 245.829 374.091, 258.512 371.003, 261.667 370.970 C 267.046 370.912, 261.785 369.264, 253.952 368.552 C 249.800 368.176, 245.937 367.560, 245.368 367.184 C 244.754 366.778, 244.367 362.234, 244.416 356.024 C 244.485 347.403, 244.231 345.495, 242.979 345.245 C 242.143 345.078, 240.905 345.495, 240.229 346.171 M 331 390.502 C 323.113 392.097, 316.014 394.468, 310 397.516 C 305.051 400.024, 295.039 407.125, 295.015 408.143 C 295.007 408.497, 298.319 407.497, 302.376 405.922 C 306.432 404.347, 314.195 401.833, 319.626 400.335 C 329.145 397.710, 330.417 397.610, 355 397.556 C 369.025 397.525, 385.225 397.836, 391 398.247 C 398.099 398.752, 401.014 398.670, 400 397.993 C 396.938 395.951, 382.209 391.832, 373.004 390.445 C 361.386 388.693, 339.801 388.723, 331 390.502 M 233.907 396.328 C 228.694 399.081, 224.387 405.459, 223.380 411.916 C 222.747 415.977, 222.844 416.274, 224.592 415.603 C 228.804 413.987, 246.793 411.893, 251.500 412.471 C 254.250 412.809, 260.212 414.332, 264.750 415.856 C 272.643 418.506, 273 418.542, 273 416.679 C 273 408.809, 265.153 398.263, 257.310 395.590 C 250.134 393.145, 239.286 393.487, 233.907 396.328 M 339.500 409.566 C 338.400 409.826, 334.901 410.544, 331.725 411.161 C 328.549 411.779, 326.119 412.452, 326.324 412.658 C 326.530 412.863, 332.953 413.479, 340.599 414.027 C 355.114 415.066, 374.181 417.472, 379.750 418.967 C 381.538 419.446, 383 419.499, 383 419.083 C 383 417.878, 372.739 413.016, 366.869 411.440 C 361.380 409.966, 343.103 408.715, 339.500 409.566 M 298 422.232 C 298.275 422.512, 304.800 425.344, 312.500 428.526 C 328.960 435.329, 344.747 442.741, 350.846 446.529 C 354.687 448.914, 355.067 448.994, 354.113 447.210 C 353.519 446.101, 350.367 442.527, 347.109 439.269 C 340.377 432.537, 330.543 426.955, 321.137 424.529 C 315.069 422.963, 296.951 421.164, 298 422.232" stroke="none" fill="#040404" fill-rule="evenodd"/><path d="M -0 400.001 L -0 800.002 420.250 799.751 L 840.500 799.500 840.751 399.750 L 841.002 0 420.501 0 L 0 0 -0 400.001 M 0.495 400.500 C 0.495 620.500, 0.610 710.351, 0.750 600.169 C 0.890 489.986, 0.890 309.986, 0.750 200.169 C 0.610 90.351, 0.495 180.500, 0.495 400.500 M 715.226 56.395 C 703.083 75.838, 696.290 85.297, 695.029 84.518 C 694.527 84.208, 693.808 81.901, 693.432 79.393 L 692.748 74.833 688.808 83.666 C 684.934 92.352, 677.248 114.178, 674.960 122.990 L 673.794 127.479 671.426 124.509 C 670.123 122.876, 668.784 120.293, 668.449 118.770 C 668.115 117.246, 667.515 116, 667.117 116 C 665.674 116, 658.055 152.734, 657.991 160 C 657.979 161.375, 657.575 163.122, 657.094 163.883 C 656.357 165.046, 655.859 165.014, 653.965 163.688 C 652.726 162.820, 650.932 160.920, 649.978 159.466 L 648.243 156.822 645.623 163.679 C 640.683 176.606, 637.920 189.716, 637.293 203.205 C 636.744 215.002, 636.574 215.843, 634.915 214.955 C 633.933 214.429, 632.568 212.448, 631.883 210.553 C 628.750 201.888, 628.121 213.004, 630.500 235 C 632.299 251.632, 632.379 257, 630.829 257 C 630.184 257, 627.757 255.017, 625.435 252.593 L 621.213 248.187 620.606 251.218 C 619.501 256.743, 619.975 264.660, 622 274.500 C 624.003 284.234, 624.659 294.992, 623.250 295.009 C 622.837 295.014, 621.226 293.551, 619.670 291.759 L 616.840 288.500 617.479 292 C 617.831 293.925, 618.813 299.325, 619.662 304 C 621.527 314.272, 620.976 332.932, 618.581 340.649 C 616.847 346.235, 609.312 358.311, 608.048 357.530 C 607.620 357.265, 606.748 354.450, 606.110 351.274 C 605.472 348.098, 603.851 342.823, 602.506 339.552 C 601.162 336.281, 600.274 333.393, 600.533 333.134 C 600.791 332.875, 603.027 333.127, 605.501 333.693 C 608.752 334.437, 609.999 334.414, 609.997 333.611 C 609.992 331.374, 605.102 314.368, 603.178 309.897 C 602.088 307.365, 599.813 303.718, 598.121 301.791 C 594.730 297.928, 594.933 297, 599.167 297 C 602.531 297, 602.710 295.754, 600.444 288.122 C 598.830 282.687, 593.333 275.558, 589.922 274.475 C 586.129 273.271, 587.912 271.730, 592.500 272.247 C 596.440 272.691, 597 272.517, 597 270.844 C 597 265.160, 587.698 253.481, 579.999 249.500 C 576.317 247.596, 576.973 246.289, 581.846 245.821 L 585.193 245.500 581.676 241.069 C 576.937 235.097, 568.232 229.419, 561.509 227.915 C 558.479 227.236, 556 226.336, 556 225.913 C 556 224.414, 561.306 221, 563.635 221 C 567.688 221, 566.242 219.239, 560.250 216.879 C 555.387 214.963, 552.548 214.605, 541.849 214.557 C 530.278 214.505, 529.275 214.355, 530.104 212.806 C 530.603 211.874, 531.456 210.836, 532 210.500 C 532.544 210.164, 533.493 208.947, 534.109 207.796 C 535.226 205.710, 535.191 205.705, 522.365 206.294 C 511.028 206.814, 498.252 209.024, 491.503 211.632 C 489.536 212.392, 489.533 212.359, 491.340 209.452 C 492.349 207.828, 494.598 205.216, 496.337 203.647 L 499.500 200.793 493.536 201.495 C 480.229 203.062, 462.683 210.743, 451.112 220.067 C 447.647 222.859, 444.586 224.919, 444.310 224.644 C 443.436 223.769, 445.071 218.186, 446.564 216.947 C 449.377 214.612, 447.913 214.198, 441.853 215.611 C 423.748 219.835, 410.538 231.800, 393.309 259.579 C 392.266 261.261, 392.118 261.003, 392.118 257.500 C 392.119 255.300, 392.471 251.363, 392.901 248.750 C 393.331 246.138, 393.417 244.026, 393.091 244.057 C 392.202 244.143, 386.493 251.878, 375.440 267.975 C 365.247 282.819, 354.575 295.105, 349.093 298.307 C 347.392 299.300, 346 299.853, 346 299.535 C 346 299.217, 348.174 296.154, 350.830 292.729 C 363.783 276.027, 370.173 259.453, 372.458 236.633 L 373.045 230.766 368.316 231.475 C 351.972 233.926, 330.017 243.640, 315.155 254.997 C 306.632 261.509, 305.661 262.003, 304.121 260.609 C 301.302 258.058, 291.956 254.351, 283.500 252.429 C 277.682 251.107, 271.546 250.623, 261 250.655 C 244.285 250.704, 232.268 252.641, 221.174 257.073 C 217.145 258.683, 213.483 260, 213.036 260 C 212.588 260, 211.941 258.501, 211.598 256.669 C 210.589 251.291, 203.655 237.947, 198.757 231.954 C 196.263 228.904, 191.782 224.566, 188.799 222.313 C 183.092 218.004, 171.987 212, 169.725 212 C 168.951 212, 166.834 216.219, 164.667 222.079 C 155.492 246.888, 155.737 261.104, 165.812 288.418 L 168.732 296.335 163.023 303.135 C 151.131 317.298, 146.978 329.448, 147.035 349.910 C 147.054 356.834, 147.720 366.100, 148.515 370.500 C 149.310 374.900, 149.970 378.769, 149.980 379.097 C 149.991 379.426, 145.045 379.978, 138.988 380.324 C 127.748 380.968, 107.884 384.536, 98 387.688 L 92.500 389.442 111.500 390.112 C 127.408 390.673, 154.633 393.300, 155.711 394.378 C 155.878 394.545, 148.249 397.258, 138.757 400.408 C 122.492 405.804, 108.480 411.551, 114 410.560 C 115.375 410.314, 123.108 409.602, 131.186 408.979 C 146.327 407.812, 172.099 408.908, 177.157 410.934 C 179.075 411.703, 179.161 411.885, 177.627 411.937 C 174.153 412.054, 155.564 418.770, 147 423.003 L 138.500 427.203 145.129 426.586 C 177.899 423.536, 194.109 423.222, 196.082 425.599 C 198.673 428.720, 208.958 436.060, 216.264 440.001 C 234.599 449.891, 256.743 450.641, 274.229 441.965 C 277.588 440.299, 280.647 439.287, 281.028 439.718 C 281.409 440.148, 282.492 444.550, 283.435 449.500 C 289.590 481.804, 298.752 509.213, 316.149 547.362 C 333.410 585.214, 340.581 607.115, 342.928 629.149 C 344.320 642.214, 344.582 671.883, 343.539 698.223 L 342.758 717.947 337.840 721.103 C 328.198 727.290, 322.697 736.739, 321.407 749.332 L 320.741 755.834 324.620 756.919 C 337.216 760.440, 353.171 760.759, 364.500 757.717 L 369.500 756.374 370.692 740.437 C 372.856 711.516, 375.958 655.964, 377.027 627 C 380.317 537.861, 402.130 457.463, 430.035 431.628 C 437.358 424.848, 443.715 421.849, 452 421.265 C 457.637 420.867, 458.962 421.121, 461.976 423.177 C 466.261 426.099, 469.649 430.997, 471.121 436.401 C 473.753 446.055, 469.219 472.623, 463.119 483.300 C 457.464 493.195, 454.396 505.146, 454.866 515.446 L 455 518.392 458.298 515.196 C 460.111 513.438, 462.314 512, 463.193 512 C 464.624 512, 464.592 512.636, 462.895 518.089 C 461.853 521.438, 461 526.115, 461 528.481 L 461 532.784 464.682 530.907 C 466.707 529.875, 468.490 529.157, 468.645 529.312 C 468.800 529.467, 468.064 533.808, 467.009 538.958 C 465.462 546.507, 465.292 549.265, 466.134 553.187 L 467.177 558.052 470.623 555.026 C 472.519 553.362, 474.901 552, 475.918 552 C 477.657 552, 477.679 552.251, 476.290 556.250 C 475.430 558.728, 475.001 562.483, 475.261 565.257 C 475.669 569.601, 480.048 579.760, 483.503 584.378 C 484.858 586.189, 485.020 586.161, 488.080 583.586 C 489.824 582.118, 491.758 581.073, 492.376 581.263 C 494.864 582.028, 497.464 589.567, 497.828 597.068 L 498.195 604.636 492.571 612.895 C 479.195 632.539, 470.648 655.427, 457.990 705.500 L 453.693 722.500 447.596 725.518 C 438.678 729.932, 433.948 737.777, 431.562 752.113 L 430.961 755.725 437.230 757.580 C 447.702 760.679, 473.903 759.827, 479.693 756.200 C 480.372 755.775, 481.361 750.781, 481.988 744.617 C 484.483 720.092, 491.073 697.431, 502.424 674.349 C 512.715 653.421, 523.972 636.724, 544.456 612 C 562.461 590.268, 570.160 575.946, 570.235 564.045 C 570.287 555.644, 568.669 550.668, 564.932 547.744 C 562.232 545.631, 562.086 545.191, 563.024 541.978 C 563.582 540.065, 564.701 534.450, 565.510 529.500 C 566.937 520.769, 567.109 520.398, 571.241 517.082 C 578.016 511.644, 594.084 495.167, 600.430 487.147 C 608.837 476.524, 619.750 460.105, 626.953 447.244 C 632.347 437.611, 633.854 435.693, 637.856 433.369 C 644.609 429.448, 653.814 422.217, 655.092 419.828 C 656.170 417.815, 656.017 417.773, 648.957 418.172 C 643.636 418.473, 642.181 418.305, 643.467 417.541 C 652.779 412.006, 663.766 404.067, 669.632 398.635 C 676.289 392.471, 688 378.385, 688 376.543 C 688 376.092, 685.065 376.024, 681.479 376.392 L 674.958 377.060 685.322 366.780 C 691.804 360.351, 697.454 353.624, 700.401 348.823 C 705.252 340.924, 711.258 327.164, 712.535 321.024 L 713.258 317.548 708.680 322.061 C 704.270 326.409, 694.350 332.876, 696.599 329.937 C 697.204 329.147, 699.947 325.575, 702.695 322 C 715.046 305.930, 722.989 292.033, 727.496 278.606 C 731.478 266.745, 731.053 265.837, 724.374 271.941 C 721.280 274.769, 718.555 276.888, 718.317 276.650 C 718.079 276.413, 719.557 273.604, 721.601 270.410 C 727.025 261.930, 732.498 249.754, 735.495 239.495 C 738.365 229.671, 740.066 213, 738.198 213 C 737.594 213, 736.740 213.628, 736.300 214.396 C 735.295 216.151, 725.739 224.072, 725.235 223.569 C 725.030 223.364, 726.473 220.954, 728.442 218.214 C 730.410 215.474, 733.793 209.451, 735.958 204.831 C 741.749 192.474, 747.713 168.028, 743.718 173.023 C 742.091 175.059, 736.939 179, 735.906 179 C 735.452 179, 736.619 175.963, 738.498 172.250 C 740.378 168.537, 742.640 162.800, 743.525 159.500 C 745.185 153.312, 746.798 133, 745.630 133 C 745.268 133, 743.665 134.462, 742.069 136.249 C 740.472 138.036, 738.902 139.235, 738.580 138.913 C 738.258 138.592, 738.921 135.667, 740.052 132.414 C 743.253 123.210, 747.957 103.200, 748.645 95.858 C 749.012 91.935, 748.751 86.480, 748.007 82.535 L 746.746 75.854 743.575 78.927 C 741.832 80.617, 740.153 82, 739.846 82 C 739.539 82, 739.004 78.963, 738.657 75.250 C 737.521 63.085, 732.498 48.354, 727.395 42.223 L 725.500 39.945 715.226 56.395 M 197.363 312.466 C 187.755 317.329, 184.102 325.695, 183.267 344.750 L 182.730 357 187.236 357 L 191.742 357 192.419 351.901 C 193.833 341.238, 197.769 336, 204.369 336 C 210.429 336, 212.833 339.622, 213.710 350.075 L 214.290 357 221.032 357 L 227.774 357 228.211 349.750 C 228.926 337.861, 227.379 326.272, 224.245 320.045 C 220.491 312.584, 217.526 310.644, 209.218 310.214 C 203.543 309.921, 201.703 310.270, 197.363 312.466 M 291.180 311.682 C 282.214 316.100, 275 335.251, 275 354.631 L 275 361 279.371 361 L 283.742 361 284.437 354.855 C 285.347 346.810, 287.516 341.585, 291.250 338.443 C 295.049 335.246, 298.598 335.553, 301.401 339.321 C 303.107 341.613, 303.565 343.909, 303.847 351.571 C 304.148 359.782, 304.421 361, 305.957 361 C 306.927 361, 309.809 361.286, 312.360 361.636 L 317 362.272 316.985 349.386 C 316.963 329.973, 312.772 316.272, 305.500 311.837 C 301.796 309.578, 295.585 309.511, 291.180 311.682 M 240.229 346.171 C 239.460 346.940, 239 350.423, 239 355.482 C 239 362.573, 238.231 366.997, 235.476 375.746 C 234.769 377.991, 234.772 377.992, 239.121 376.457 C 245.829 374.091, 258.512 371.003, 261.667 370.970 C 267.046 370.912, 261.785 369.264, 253.952 368.552 C 249.800 368.176, 245.937 367.560, 245.368 367.184 C 244.754 366.778, 244.367 362.234, 244.416 356.024 C 244.485 347.403, 244.231 345.495, 242.979 345.245 C 242.143 345.078, 240.905 345.495, 240.229 346.171 M 331 390.502 C 323.113 392.097, 316.014 394.468, 310 397.516 C 305.051 400.024, 295.039 407.125, 295.015 408.143 C 295.007 408.497, 298.319 407.497, 302.376 405.922 C 306.432 404.347, 314.195 401.833, 319.626 400.335 C 329.145 397.710, 330.417 397.610, 355 397.556 C 369.025 397.525, 385.225 397.836, 391 398.247 C 398.099 398.752, 401.014 398.670, 400 397.993 C 396.938 395.951, 382.209 391.832, 373.004 390.445 C 361.386 388.693, 339.801 388.723, 331 390.502 M 233.907 396.328 C 228.694 399.081, 224.387 405.459, 223.380 411.916 C 222.747 415.977, 222.844 416.274, 224.592 415.603 C 228.804 413.987, 246.793 411.893, 251.500 412.471 C 254.250 412.809, 260.212 414.332, 264.750 415.856 C 272.643 418.506, 273 418.542, 273 416.679 C 273 408.809, 265.153 398.263, 257.310 395.590 C 250.134 393.145, 239.286 393.487, 233.907 396.328 M 339.500 409.566 C 338.400 409.826, 334.901 410.544, 331.725 411.161 C 328.549 411.779, 326.119 412.452, 326.324 412.658 C 326.530 412.863, 332.953 413.479, 340.599 414.027 C 355.114 415.066, 374.181 417.472, 379.750 418.967 C 381.538 419.446, 383 419.499, 383 419.083 C 383 417.878, 372.739 413.016, 366.869 411.440 C 361.380 409.966, 343.103 408.715, 339.500 409.566 M 298 422.232 C 298.275 422.512, 304.800 425.344, 312.500 428.526 C 328.960 435.329, 344.747 442.741, 350.846 446.529 C 354.687 448.914, 355.067 448.994, 354.113 447.210 C 353.519 446.101, 350.367 442.527, 347.109 439.269 C 340.377 432.537, 330.543 426.955, 321.137 424.529 C 315.069 422.963, 296.951 421.164, 298 422.232" stroke="none" fill="#fbfbfb" fill-rule="evenodd"/></svg>