<svg xmlns="http://www.w3.org/2000/svg" width="920" height="729" viewBox="0 0 920 729" version="1.1"><path d="M 518.054 52.078 C 513.409 52.601, 504.480 54.180, 498.211 55.586 C 487.442 58.001, 486.711 58.048, 484.930 56.436 C 482.200 53.966, 478.323 54.901, 462.165 61.928 L 448.194 68.004 439.066 65.022 C 417.796 58.071, 384.501 52.048, 367.136 52.010 L 362.773 52 363.472 56.663 C 364.573 64.005, 369.433 76.764, 379.979 100 C 385.346 111.825, 390.866 124.650, 392.247 128.500 C 394.949 136.034, 396.610 144, 395.479 144 C 395.095 144, 390.218 142.020, 384.641 139.601 C 379.063 137.182, 372.700 134.709, 370.500 134.107 C 365.449 132.723, 356.661 132.642, 357.492 133.987 C 357.827 134.529, 362.691 136.384, 368.301 138.109 C 380.420 141.834, 391.815 146.916, 394.261 149.687 C 395.809 151.441, 395.930 152.873, 395.261 161.590 C 394.371 173.182, 396.165 172.353, 377.882 169.628 C 366.834 167.981, 361 168.147, 361 170.108 C 361 170.599, 361.366 171, 361.814 171 C 365.695 171, 386.482 174.337, 390.126 175.545 L 394.751 177.078 395.182 188.326 C 395.569 198.432, 395.943 200.282, 398.862 206.537 C 403.221 215.877, 415.065 233.360, 424.920 245 C 433.219 254.803, 434.247 256.522, 431.250 255.591 C 424.426 253.471, 400.811 247.854, 392.988 246.490 C 374.357 243.241, 356.734 244.872, 350.285 250.441 L 347.500 252.846 353.500 250.807 C 358.716 249.034, 361.132 248.839, 372 249.310 C 378.875 249.607, 388.550 250.570, 393.500 251.449 C 406.473 253.753, 435.288 261.032, 436.713 262.365 C 437.380 262.989, 438.055 265.075, 438.213 267 L 438.500 270.500 425.500 270 C 383.294 268.377, 364.909 270.785, 362.064 278.308 C 361.041 281.012, 361.752 282.450, 363.425 281.062 C 368.979 276.453, 388.431 274.434, 412.293 275.990 C 421.725 276.605, 429.605 277.271, 429.803 277.470 C 430.391 278.058, 412.182 311.918, 407.397 319.137 C 401.546 327.962, 391.274 337.424, 383.652 341.010 C 369.756 347.546, 353.805 354.080, 349.084 355.170 C 345.180 356.071, 342.795 356.049, 338.416 355.069 L 332.777 353.807 326.061 339.653 C 322.367 331.869, 314.694 315.375, 309.009 303 C 298.904 281.002, 293.876 273, 290.158 273 C 286.483 273, 289.972 282.877, 306.418 319.031 C 315.524 339.049, 322.642 355.708, 322.237 356.053 C 321.832 356.397, 319.925 357.290, 318 358.036 C 311.972 360.373, 305.155 365.001, 301.567 369.193 L 298.115 373.226 273.307 365.506 C 233.925 353.251, 211.328 344.350, 209.118 340.221 C 208.532 339.125, 205.319 328.839, 201.980 317.364 C 198.641 305.889, 194.605 293.692, 193.012 290.259 C 189.785 283.310, 182.393 275.275, 176.397 272.199 C 172.650 270.277, 172.500 270.007, 172.500 265.173 C 172.500 258.067, 170.142 255.364, 159.353 250.105 C 150.769 245.921, 150.284 245.511, 149.222 241.540 C 147.900 236.599, 145.183 235, 138.108 235 C 132.188 235, 130.259 236.847, 129.820 242.934 L 129.500 247.364 122.092 249.179 C 113.449 251.298, 106.986 254.788, 105.067 258.376 C 104.125 260.135, 103.894 262.715, 104.317 266.759 L 104.928 272.601 98.794 277.051 C 83.923 287.837, 74.204 305.519, 68.923 331.393 C 62.264 364.020, 59.302 373.899, 54.701 378.838 C 53.491 380.137, 49.480 383.160, 45.789 385.555 C 37.403 390.996, 33 396.766, 33 402.316 C 33 406.013, 33.622 406.937, 40.827 413.951 C 53.373 426.165, 62.786 430.240, 86.743 433.831 L 98.339 435.569 99.582 441.666 C 100.967 448.455, 102.150 451.056, 107.398 458.850 C 112.267 466.082, 112.175 469.333, 106.918 475.985 C 104.673 478.825, 102.230 482.598, 101.490 484.369 C 100.384 487.016, 99.165 487.898, 94.642 489.324 C 78.202 494.506, 69.279 508.800, 74.755 521.180 C 78.991 530.755, 98.339 539.576, 122.467 542.932 C 133.443 544.459, 154.077 544.248, 163.965 542.508 C 180.006 539.685, 189.429 535.545, 197.771 527.655 C 212.479 513.745, 210 505.680, 186.500 490.973 C 170.255 480.807, 165.990 475.981, 166.007 467.782 C 166.014 464.291, 167.274 462.033, 173.229 454.846 C 178.047 449.031, 180.207 443.752, 179.841 438.685 L 179.548 434.628 187.524 433.323 C 212.630 429.216, 239.875 415.878, 245.542 404.920 C 249.823 396.640, 244.070 388.105, 231.856 384.617 C 225.930 382.925, 221.746 379.246, 218.347 372.737 C 216.641 369.469, 209.990 350.690, 210.394 350.278 C 210.513 350.156, 215.536 351.359, 221.556 352.953 C 234.235 356.309, 248.436 361.157, 273 370.514 C 282.625 374.181, 291.697 377.620, 293.161 378.157 C 295.769 379.114, 295.829 379.335, 296.173 389.317 C 296.598 401.603, 298.221 405.524, 304.923 410.444 C 317.648 419.785, 324.509 421.303, 337.685 417.693 L 346.855 415.180 348.503 419.298 C 350.421 424.093, 350.781 423.642, 340 429.956 C 317.479 443.145, 278.690 459.360, 247.655 468.558 C 237.672 471.516, 237.590 470.990, 249 477.260 C 267.637 487.502, 289.084 494.710, 324.308 502.569 C 338.069 505.639, 351.627 509.011, 354.435 510.062 C 362.687 513.149, 370.180 518.176, 373.722 523 C 379.237 530.513, 378.895 530.291, 383.992 529.687 C 386.570 529.382, 391.227 528.272, 394.340 527.221 L 400 525.310 400 529.997 C 400 532.574, 400.896 542.742, 401.991 552.592 C 403.086 562.441, 403.986 571.216, 403.991 572.092 C 403.997 573.101, 402.446 574.149, 399.750 574.955 C 393.886 576.710, 384.951 581.329, 381.017 584.639 L 377.735 587.400 378.475 634.417 C 378.882 660.276, 379.563 682.348, 379.990 683.467 C 382.115 689.041, 390.467 694.150, 403.169 697.646 C 412.542 700.225, 434.850 699.989, 445.154 697.201 C 453.720 694.884, 461.696 691.158, 464.085 688.358 C 468.357 683.351, 468.500 681.578, 468.500 633.643 L 468.500 587.786 465.056 584.908 C 463.162 583.325, 459.199 581.030, 456.250 579.808 C 449.800 577.134, 449.716 578.154, 457.951 559 C 466.054 540.154, 467.196 536.795, 466.825 532.909 C 466.376 528.200, 463.005 527.899, 456.794 532.013 C 450.660 536.076, 447.069 541.692, 441.544 555.858 C 439.046 562.261, 436.201 568.816, 435.220 570.425 C 433.495 573.255, 433.212 573.341, 426.474 573.097 C 422.644 572.958, 419.364 572.697, 419.184 572.517 C 418.521 571.854, 412.167 521.538, 412.648 520.760 C 413.825 518.855, 426.080 513.631, 442.662 507.964 C 452.473 504.611, 470.778 498.007, 483.341 493.287 L 506.181 484.706 514.495 485.999 C 524.575 487.567, 529.035 486.956, 534.249 483.290 C 545.195 475.594, 553.205 473.050, 566.590 473.017 C 572.705 473.002, 576.830 474.019, 596.590 480.412 C 609.191 484.489, 646.950 496.680, 680.500 507.504 C 714.050 518.328, 771.200 536.775, 807.500 548.498 C 843.800 560.221, 874.509 570.109, 875.742 570.471 C 877.516 570.992, 878.230 570.589, 879.165 568.538 C 879.879 566.969, 879.981 565.623, 879.423 565.127 C 878.915 564.677, 858.651 557.637, 834.391 549.483 L 790.283 534.657 789.641 524.173 C 789.289 518.407, 788.993 509.146, 788.984 503.594 C 788.963 490.256, 787.456 472.618, 785.106 458.197 C 784.057 451.764, 782.680 442.778, 782.045 438.229 C 779.394 419.241, 772.926 401.612, 763.438 387.521 C 755.689 376.012, 755.024 374.729, 750.980 363.500 C 747.934 355.043, 747.729 353.625, 747.578 340 C 747.401 323.927, 746.529 320.779, 739.369 310.378 C 737.343 307.433, 735.609 303.502, 735.290 301.128 C 734.773 297.267, 735.020 296.725, 739.118 292.750 C 741.528 290.413, 744.783 287.600, 746.351 286.500 L 749.202 284.500 744.428 276.500 C 738.454 266.489, 731.011 250.246, 731.005 247.203 C 731.002 245.696, 732.029 244.322, 733.994 243.203 C 738.879 240.424, 737.937 238.040, 727.273 226.199 L 721.047 219.285 725.023 217.723 C 727.211 216.864, 729 215.529, 729 214.756 C 729 213.983, 722.667 206.409, 714.927 197.925 C 700.089 181.663, 690.467 168.510, 687.462 160.385 C 686.469 157.698, 685.228 154.938, 684.705 154.250 C 684.092 153.443, 684.156 152.517, 684.887 151.636 C 685.744 150.604, 685.509 148.597, 683.922 143.386 C 680.832 133.243, 678.115 129.251, 667.391 119.102 L 657.715 109.944 658.285 103.144 C 658.669 98.562, 660.999 90.029, 665.427 76.986 C 669.042 66.340, 672 56.362, 672 54.814 C 672 52.158, 671.755 52, 667.631 52 C 660.477 52, 646.748 54.730, 625 60.477 C 613.725 63.457, 601.525 66.435, 597.889 67.095 L 591.278 68.294 585.293 64.600 C 568.173 54.033, 542.738 49.296, 518.054 52.078 M 648.500 60.454 C 614.777 66.419, 579.794 78.405, 560.260 90.687 C 551.581 96.144, 545.840 98.168, 544.624 96.200 C 542.743 93.158, 548.708 89.164, 569.015 79.868 C 576.432 76.473, 582.917 73.324, 583.426 72.871 C 585.112 71.372, 580.912 68.133, 574.634 66.088 C 549.453 57.887, 502.269 57.059, 479.256 64.414 C 477.474 64.983, 477.136 64.809, 477.613 63.565 C 478.996 59.962, 470.695 63.195, 461.653 69.782 C 457.679 72.677, 457.094 73.473, 458.403 74.206 C 460.379 75.312, 460.406 77.879, 458.468 80.441 C 457.661 81.509, 457 84.021, 457 86.024 C 457 91.454, 455.961 91.509, 453.505 86.209 C 445.421 68.759, 415.227 57.029, 386.141 60.038 C 374.938 61.197, 374 61.576, 374 64.937 C 374 69.243, 380.398 91.401, 385.289 104.031 C 391.358 119.703, 396.159 128.943, 400.010 132.362 C 403.400 135.372, 403.447 135.763, 401.579 145.500 C 401.040 148.313, 401.539 148.905, 409.598 155 C 419.809 162.723, 437.747 179.586, 436.780 180.554 C 436.405 180.928, 430.114 176.518, 422.799 170.754 C 410.031 160.693, 403.351 156.012, 401.750 156.004 C 401.337 156.002, 401.005 159.938, 401.012 164.750 L 401.024 173.500 409.678 178 C 420.479 183.617, 431.345 193, 427.048 193 C 426.524 193, 423.262 191.031, 419.798 188.625 C 412.656 183.663, 405.781 180, 403.612 180 C 401.478 180, 400.476 189.768, 401.889 196.803 C 402.542 200.053, 404.480 204.655, 406.436 207.601 C 408.310 210.424, 411.667 216.360, 413.895 220.792 C 418.055 229.066, 421.435 233.214, 418.416 226.341 C 412.419 212.689, 411.799 210.743, 413.156 209.820 C 415.291 208.368, 424.508 209.793, 432.273 212.775 C 440.561 215.959, 444.943 220.700, 447.474 229.226 C 449.460 235.913, 449.556 248, 447.622 248 C 446.865 248, 445.712 247.358, 445.061 246.573 C 444.267 245.617, 442.762 245.327, 440.501 245.694 C 438.057 246.090, 436.137 245.630, 433.536 244.022 L 429.946 241.804 435.564 249.652 C 440.170 256.087, 442.157 257.970, 446.606 260.110 C 452.741 263.060, 456 265.678, 456 267.655 C 456 269.404, 452.182 269.319, 449 267.500 C 447.625 266.714, 445.704 266.055, 444.731 266.035 C 443.312 266.007, 443.086 266.544, 443.586 268.750 C 444.488 272.719, 447.186 274.634, 452.954 275.400 C 459.721 276.297, 461 276.877, 461 279.048 C 461 282.020, 459.115 282.364, 453.422 280.429 C 450.473 279.426, 447.789 278.878, 447.456 279.210 C 446.344 280.322, 449.905 285.763, 454.090 289.345 C 461.546 295.727, 473.873 298.127, 478 294 C 481.094 290.906, 480.424 288.538, 475 283.403 C 472.250 280.799, 470 277.827, 470 276.799 C 470 275.771, 469.273 273.820, 468.385 272.465 C 466.856 270.131, 466.875 270, 468.750 270 C 469.839 270, 471.921 270.936, 473.376 272.081 C 475.693 273.904, 477.172 274.129, 485.300 273.892 C 490.404 273.743, 495.104 273.946, 495.746 274.343 C 497.809 275.618, 495.625 278.903, 490.475 282.273 C 483.611 286.764, 483.618 289.559, 490.500 293 C 495.033 295.267, 496.667 295.500, 508 295.500 C 521.651 295.500, 527.935 294.022, 533.451 289.515 L 536.403 287.104 533.636 286.052 C 532.115 285.473, 528.874 285, 526.435 285 C 522.027 285, 520.557 283.768, 523.582 282.607 C 526.249 281.583, 530.924 281.925, 537.356 283.613 C 541.765 284.770, 545.916 285.074, 552.057 284.690 C 563.998 283.943, 576.831 280.497, 574.891 278.558 C 573.983 277.650, 560.426 275.943, 548 275.174 C 535.569 274.404, 535.525 274.393, 540 273.091 C 546.716 271.139, 557.758 271.500, 568.957 274.039 C 577.279 275.926, 579.195 276.083, 580.517 274.986 C 581.389 274.262, 585.658 269.064, 590.004 263.434 C 594.350 257.805, 600.221 251.246, 603.051 248.860 C 609.145 243.721, 612.025 238.990, 614.836 229.500 C 617.157 221.664, 619.133 218.346, 620.848 219.406 C 623.617 221.117, 620.707 233.782, 615.560 242.420 C 614.223 244.664, 610.157 249.406, 606.526 252.958 C 599.756 259.578, 594.022 266.650, 590.101 273.212 L 587.884 276.925 591.613 278.483 C 593.664 279.340, 600.103 281.408, 605.921 283.078 C 632.209 290.624, 644.122 295.271, 645.344 298.454 C 645.670 299.304, 645.788 300, 645.605 300 C 645.422 300, 641.048 298.427, 635.886 296.504 C 626.854 293.140, 604.247 286.212, 589.362 282.245 L 582.225 280.343 579.342 283.571 C 575.840 287.492, 571.131 288.884, 558.234 289.810 L 548.630 290.500 552.899 293.320 C 559.231 297.502, 572.206 310.240, 578.484 318.436 C 581.518 322.397, 584 325.996, 584 326.433 C 584 326.871, 577.685 321.215, 569.966 313.864 C 562.248 306.514, 552.852 298.308, 549.087 295.628 L 542.241 290.756 535.870 293.861 C 532.367 295.569, 526.575 297.727, 523 298.656 C 514.905 300.760, 495.623 301.046, 488.333 299.170 C 484.544 298.195, 482.629 298.128, 481.149 298.920 C 478.552 300.310, 459.995 300.325, 456.315 298.940 C 452.328 297.440, 446.457 291.469, 442.361 284.750 C 440.433 281.588, 438.438 279, 437.928 279 C 435.830 279, 432.776 283.577, 426.113 296.708 C 414.665 319.269, 406.762 330.219, 395.882 338.591 C 390.416 342.797, 377.245 349.921, 372 351.508 C 370.625 351.924, 365.470 354.230, 360.545 356.632 C 355.620 359.035, 350.670 361.016, 349.545 361.036 C 347.734 361.068, 347.843 361.353, 350.500 363.531 C 352.150 364.883, 354.199 365.992, 355.054 365.995 C 358.294 366.005, 367.247 371.357, 369.095 374.389 C 371.737 378.721, 371.529 383.894, 368.552 387.929 C 367.206 389.754, 365.821 392.540, 365.474 394.120 C 364.757 397.383, 366.401 403.258, 368.525 405.020 C 371.009 407.082, 391.302 410.065, 395.137 408.931 C 396.987 408.385, 401.439 407.556, 405.032 407.090 C 408.661 406.619, 416.775 404.181, 423.293 401.603 C 429.743 399.052, 436.704 396.616, 438.761 396.191 C 441.504 395.624, 442.582 394.851, 442.809 393.287 C 443.053 391.612, 442.706 391.264, 441.189 391.661 C 438.732 392.303, 438.345 390.726, 437.468 376.500 C 436.714 364.253, 437.939 354.942, 440.815 351.063 C 444.012 346.751, 444.764 347.780, 442.754 353.714 C 438.690 365.715, 439.639 386.990, 444.203 386.223 C 446.750 385.796, 447.175 387.352, 447.592 398.616 C 448.004 409.773, 448.808 412.487, 451.999 413.500 C 453.100 413.849, 454 414.948, 454 415.942 C 454 419.252, 456.850 425.885, 460.194 430.358 L 463.500 434.780 471 435.242 C 476.832 435.602, 479.473 435.293, 482.877 433.852 C 488.687 431.394, 492.758 431.515, 504.053 434.481 C 515.567 437.505, 521.108 437.600, 527 434.874 C 529.475 433.729, 536.103 430.846, 541.729 428.467 C 547.355 426.088, 556.286 421.595, 561.575 418.482 C 572.808 411.870, 573.406 410.918, 578.108 392.135 C 581.804 377.371, 582.626 375.403, 586.132 372.906 C 588.964 370.889, 589 370.738, 589 360.800 L 589 350.737 593.518 346.219 C 596.002 343.735, 598.259 341.925, 598.532 342.199 C 598.805 342.472, 597.854 345.263, 596.417 348.400 C 594.356 352.902, 593.688 356.243, 593.247 364.248 C 592.724 373.729, 592.510 374.541, 589.973 376.676 C 586.793 379.352, 585.628 382.012, 583.502 391.450 C 580.578 404.429, 577.772 412.191, 574.764 415.615 C 572.734 417.928, 565.894 421.961, 553.147 428.364 C 530.763 439.606, 523.038 442.755, 515.893 443.547 C 510.910 444.099, 510.085 443.873, 505.034 440.572 C 500.500 437.609, 498.660 437, 494.252 437 C 484.663 437, 476 442.461, 476 448.506 C 476 452.997, 478.864 462.010, 480.489 462.634 C 481.248 462.925, 484.281 461.342, 487.230 459.116 C 491.714 455.731, 498.617 452, 500.396 452 C 501.234 452, 504 455.125, 504 456.071 C 504 456.582, 501.991 457, 499.535 457 C 493.958 457, 488.400 461.352, 487.439 466.471 C 486.614 470.871, 488.205 473.554, 493.130 476.067 C 498.007 478.555, 500 478.029, 500 474.254 C 500 469.601, 502.530 467, 507.057 467 C 510.288 467, 511 467.349, 511 468.934 C 511 470.286, 510.194 470.962, 508.316 471.184 C 504.334 471.653, 503.388 476.076, 506.620 479.113 C 511.322 483.530, 526.830 482.639, 533.500 477.569 C 539.057 473.345, 544.438 471.236, 558 467.969 C 565.425 466.181, 574.739 463.425, 578.697 461.847 C 583.862 459.786, 588.943 458.689, 596.697 457.960 C 608.255 456.873, 617.070 454.462, 626.160 449.902 C 633.458 446.240, 639.160 438.557, 657.626 407.500 C 675.316 377.747, 684.332 365, 687.687 365 C 688.409 365, 689 365.957, 689 367.127 C 689 369.990, 681.766 382.939, 678.443 386.025 C 673.938 390.208, 668.597 398.832, 660.500 415 C 656.234 423.519, 651.037 433, 648.953 436.069 C 643.810 443.643, 635.241 451.264, 627.687 454.982 C 621.117 458.217, 600.550 464.364, 592.322 465.552 C 589.670 465.935, 586.975 466.530, 586.333 466.874 C 584.421 467.900, 649.177 491.268, 697.500 506.989 C 720.392 514.437, 750.390 523.681, 769 529.021 C 776.975 531.309, 784.134 533.703, 784.909 534.341 C 786.113 535.330, 786.221 534.037, 785.652 525.500 C 785.285 520, 784.330 504.250, 783.530 490.500 C 782.730 476.750, 781.604 463.925, 781.027 462 C 780.450 460.075, 779.285 453.775, 778.438 448 C 776.181 432.618, 772.625 417.510, 769.160 408.588 C 767.409 404.078, 762.235 394.893, 756.997 386.996 C 746.413 371.038, 745.577 368.458, 743.951 346.736 C 742.353 325.395, 741.554 322.582, 734.186 312.365 C 725.331 300.086, 725.338 296.339, 734.234 287.288 C 739.152 282.284, 739.304 281.966, 738.047 279.288 C 735.014 272.830, 726 249.625, 726 248.276 C 726 247.469, 726.944 245.483, 728.098 243.863 C 730.947 239.861, 730.205 237.748, 723.040 229.470 C 717.038 222.536, 716.097 220.676, 717.995 219.503 C 718.542 219.165, 719.446 218.036, 720.004 216.993 C 720.806 215.493, 720.523 214.618, 718.644 212.799 C 714.379 208.670, 707.358 199.404, 697.998 185.551 C 692.942 178.067, 685.924 168.805, 682.402 164.968 C 678.881 161.131, 676 157.461, 676 156.811 C 676 156.162, 676.713 153.090, 677.584 149.985 C 680.030 141.270, 678.554 137.328, 669.428 128.202 C 665.367 124.141, 661.472 121, 660.772 121.221 C 659.520 121.618, 658.801 123.617, 653.479 141.500 C 650.924 150.086, 650.495 150.787, 644.151 156.732 L 637.500 162.963 641 163.081 C 642.925 163.146, 645.625 163.538, 647 163.952 C 648.392 164.371, 642.608 164.746, 633.943 164.798 C 594.262 165.038, 555.692 174.411, 535.652 188.684 C 532.986 190.584, 530.611 191.944, 530.375 191.709 C 529.416 190.749, 542.964 179.284, 548.527 176.347 C 556.921 171.916, 570.311 167.391, 581.913 165.065 C 595.094 162.423, 616.759 160.638, 625.840 161.446 C 632.764 162.063, 633.381 161.947, 636.709 159.408 C 643.564 154.180, 648.900 138.430, 651.584 115.500 C 652.421 108.350, 654.257 98.003, 655.663 92.506 C 657.070 87.009, 658.587 79.925, 659.033 76.764 C 659.698 72.060, 661.605 66.973, 665.785 58.750 C 666.376 57.588, 662.590 57.962, 648.500 60.454 M 402.500 67.523 C 407.700 72.006, 412.025 74.031, 419.974 75.702 C 431.152 78.052, 434.125 81.317, 434.125 91.243 C 434.125 94.933, 433.406 99.445, 432.428 101.889 C 430.633 106.374, 431.354 108.569, 434.255 107.456 C 436.989 106.406, 439 99.508, 439 91.176 C 439 83.703, 438.870 83.267, 435.750 80.261 C 430.507 75.209, 421.188 70.154, 411.246 66.969 C 399.011 63.050, 397.428 63.151, 402.500 67.523 M 638 65.646 C 637.175 65.915, 632.225 67.514, 627 69.200 C 610.374 74.564, 598.107 81.465, 580.825 95.175 C 567.803 105.506, 565.105 113.218, 571.750 121.115 C 574.431 124.301, 581.347 128.320, 582.376 127.290 C 584.135 125.532, 582.548 122.672, 578 119.405 C 572.315 115.320, 571.953 113.795, 575.116 107.261 C 578.206 100.877, 584.798 96.459, 608 85.219 C 626.466 76.274, 640 68.074, 640 65.832 C 640 65.374, 639.888 65.036, 639.750 65.079 C 639.612 65.122, 638.825 65.378, 638 65.646 M 596.921 188.482 C 584.060 190.649, 562.953 197.648, 561.322 200.288 C 560.898 200.974, 561.338 201.072, 562.586 200.570 C 563.639 200.147, 569.610 198.496, 575.855 196.901 C 605.596 189.305, 637.135 189.128, 655.274 196.455 C 660.592 198.603, 660.990 198.647, 659.422 196.914 C 656.720 193.928, 648.248 190.336, 639.792 188.591 C 630.476 186.668, 608.025 186.611, 596.921 188.482 M 420.725 215.609 C 419.289 217.045, 420.066 222.600, 422.407 227.627 C 424.980 233.153, 427.771 236.158, 425.997 231.492 C 424.447 227.415, 424.820 222.807, 426.989 219.250 C 428.813 216.259, 428.832 215.999, 427.235 215.986 C 426.281 215.979, 424.589 215.728, 423.475 215.428 C 422.361 215.129, 421.123 215.210, 420.725 215.609 M 536.327 218.458 C 533.191 219.823, 526.034 226.520, 523.341 230.612 C 522.576 231.774, 521.675 235.824, 521.338 239.612 C 521.002 243.401, 520.307 247.034, 519.794 247.686 C 518.166 249.757, 520.694 252.657, 527.397 256.405 C 535.905 261.163, 540.352 261.192, 549.616 256.551 C 559.368 251.664, 575.561 237.274, 580.409 229.187 C 582.723 225.326, 571.994 220.965, 554.216 218.539 C 540.736 216.701, 540.372 216.699, 536.327 218.458 M 435.492 221.750 C 436.901 225.245, 437.221 230.929, 436.176 233.924 C 435.246 236.592, 435.369 237.127, 437.132 238.071 C 439.925 239.565, 442 238.530, 442 235.644 C 442 233.278, 436.312 220, 435.299 220 C 435.017 220, 435.104 220.787, 435.492 221.750 M 549.429 228.532 C 551.070 231.037, 551.050 231.081, 547.576 232.532 C 545.645 233.340, 542.925 234, 541.532 234 C 537.412 234, 538.638 235.834, 543.750 237.319 C 548.162 238.599, 548.522 238.951, 548.805 242.250 C 548.972 244.205, 548.432 247.423, 547.606 249.402 C 546.779 251.381, 546.347 253, 546.645 253 C 547.710 253, 563.872 240.940, 568.644 236.585 C 572.767 232.822, 573.333 231.877, 572.392 230.328 C 570.805 227.714, 564.700 226.165, 555.635 226.077 L 547.770 226 549.429 228.532 M 531.046 230.137 C 527.738 235.534, 524.829 244.183, 525.468 246.727 C 525.790 248.011, 527.504 249.946, 529.277 251.027 C 533.460 253.578, 534.345 253.513, 532.874 250.764 C 531.435 248.076, 531.465 235.857, 532.922 231.066 C 534.329 226.437, 533.551 226.052, 531.046 230.137 M 137.811 241.713 C 136.950 242.696, 135.636 245.228, 134.890 247.340 C 133.259 251.956, 132.682 252.293, 122.562 254.530 C 110.722 257.147, 108.190 260.437, 111.551 268.837 C 112.957 272.350, 113.685 272.892, 119.301 274.607 C 128.578 277.440, 146.018 277.211, 156 274.125 C 160.125 272.849, 164.063 271.345, 164.750 270.781 C 165.438 270.217, 166 267.832, 166 265.483 C 166 259.835, 163.241 257.232, 153.826 254 C 147.487 251.824, 146.432 251.112, 145.674 248.500 C 143.385 240.615, 140.759 238.348, 137.811 241.713 M 165 277.606 C 155.463 281.770, 144.467 284.127, 134.376 284.171 C 123.669 284.217, 120.436 283.793, 112.691 281.329 C 109.899 280.441, 106.506 280.058, 104.603 280.415 C 95.379 282.145, 87.027 295.746, 81.832 317.500 C 66.929 379.905, 65.927 383.082, 58.853 390.344 C 50.357 399.066, 49.776 407.604, 57.301 413.164 C 73.954 425.469, 102.637 432, 140.024 432 C 182.375 432, 219.231 422.695, 235.395 407.922 C 244.239 399.839, 243.211 396.629, 229.657 390 C 224.199 387.331, 221.610 385.313, 218.752 381.500 C 209.589 369.278, 203.502 353.335, 200.012 332.415 C 195.431 304.961, 192.621 297.123, 183.961 287.648 C 179.826 283.124, 170.453 275.893, 168.912 276.039 C 168.686 276.061, 166.925 276.766, 165 277.606 M 320.222 362.470 C 314.422 364.281, 309.654 368.108, 305.484 374.300 C 301.401 380.363, 301.119 383.909, 304.075 392 C 305.180 395.025, 306.531 398.943, 307.077 400.706 C 308.980 406.852, 318.124 412.202, 329 413.532 C 335.204 414.290, 338.503 412.439, 338.490 408.207 C 338.485 406.443, 338.959 405, 339.543 405 C 340.128 405, 344.570 407.489, 349.414 410.530 C 356.359 414.891, 358.516 415.817, 359.611 414.908 C 361.636 413.227, 361.353 404.174, 359.044 396.771 C 357.968 393.322, 356.358 387.800, 355.466 384.500 C 354.053 379.271, 352.923 377.591, 346.672 371.427 C 336.787 361.679, 330.055 359.399, 320.222 362.470 M 355 371.025 C 355 372.536, 361.787 385.751, 362.925 386.454 C 364.214 387.250, 366 383.802, 366 380.516 C 366 377.129, 363.504 372.340, 361.055 371.030 C 358.579 369.705, 355 369.702, 355 371.025 M 430 401.953 C 421.327 404.925, 409.097 409.846, 410 410.001 C 410.275 410.049, 419.275 412.938, 430 416.422 C 440.725 419.906, 449.568 422.699, 449.652 422.628 C 449.947 422.379, 444.185 401.109, 443.539 400.062 C 442.489 398.365, 439.088 398.840, 430 401.953 M 367.259 414.662 C 369.868 419.480, 370.478 420, 373.510 420 C 383.158 420, 399.620 425.376, 423.922 436.465 C 445.874 446.480, 467.498 453.048, 469.893 450.427 C 470.358 449.917, 470.995 447.813, 471.307 445.751 C 471.943 441.544, 471.089 440.730, 464.855 439.606 C 462.443 439.171, 459.904 437.592, 457.355 434.943 C 453.733 431.181, 451.921 430.425, 427.435 422.469 C 407.818 416.095, 400.026 413.999, 395.935 413.995 C 392.946 413.992, 384.620 412.939, 377.434 411.656 L 364.368 409.324 367.259 414.662 M 374.677 424.682 C 373.200 425.081, 372.955 425.870, 373.385 428.837 C 374.683 437.775, 375.127 445.023, 374.499 447.002 C 373.854 449.035, 373.721 449.058, 371.935 447.441 C 370.899 446.503, 369.774 444.863, 369.435 443.796 C 369.058 442.606, 368.249 442.074, 367.346 442.421 C 364.830 443.386, 360.218 440.203, 355.957 434.560 C 351.967 429.275, 351.798 429.174, 348.686 430.234 C 346.934 430.831, 335.600 436.368, 323.500 442.538 C 301.195 453.912, 282.787 461.698, 262.063 468.523 L 250.626 472.290 253.563 474.649 C 262.638 481.939, 281.796 488.886, 319.207 498.452 C 356.126 507.893, 369.463 512.975, 380.763 521.907 L 385.933 525.993 391.216 524.881 C 399.561 523.123, 399.500 523.205, 399.500 513.814 L 399.500 505.500 402.704 505.190 C 407.886 504.689, 410 506.419, 410 511.163 L 410 515.256 414.250 514.581 C 421.633 513.408, 437.829 507.504, 458.500 498.451 C 469.500 493.634, 482.748 488.205, 487.941 486.388 C 494.885 483.958, 496.869 482.905, 495.441 482.407 C 486.893 479.427, 484.888 478.002, 482.891 473.485 C 481.713 470.824, 479.824 468.421, 478.397 467.771 C 476.867 467.074, 474.819 464.311, 472.986 460.471 L 470.038 454.293 463.086 453.710 C 453.980 452.947, 438.966 447.849, 415.410 437.522 C 389.940 426.356, 380.036 423.234, 374.677 424.682 M 118.750 437.747 L 107 438.063 107 441.581 C 107 446.032, 108.849 449.565, 113.500 454 C 121.809 461.923, 122.187 469.832, 114.595 476.924 C 112.548 478.836, 112 480.296, 112 483.829 C 112 493.079, 122.980 499, 140.134 499 C 155.507 499, 166.009 493.659, 165.993 485.850 C 165.986 482.186, 163.499 477.739, 160.144 475.388 C 157.577 473.590, 157.349 469.481, 159.432 462.559 C 160.471 459.108, 162.652 455.949, 167.373 451.058 C 173.597 444.612, 175.948 440.343, 174.535 438.057 C 173.911 437.047, 149.692 436.913, 118.750 437.747 M 320.569 453.888 C 319.739 455.231, 334.785 460.799, 346.433 463.460 C 348.046 463.828, 351.082 464.959, 353.180 465.973 C 356.733 467.690, 358.883 467.237, 357.535 465.057 C 356.099 462.733, 341.516 455.793, 335.302 454.476 C 327.548 452.833, 321.374 452.587, 320.569 453.888 M 380.500 455.894 C 382.700 456.940, 387.958 459.221, 392.184 460.963 C 397.586 463.191, 401.538 465.711, 405.496 469.453 C 411.705 475.325, 419.657 479.173, 421.021 476.967 C 422.222 475.023, 421.068 473.055, 418.323 472.366 C 416.972 472.027, 414.796 470.053, 413.486 467.978 C 411.235 464.411, 410.330 463.959, 396.803 459.634 C 388.936 457.119, 381.150 454.821, 379.500 454.527 C 376.827 454.052, 376.936 454.201, 380.500 455.894 M 287 463.826 C 287 466.590, 290.554 469.317, 300.866 474.463 C 308.710 478.377, 310.829 479.036, 313.906 478.516 C 317.326 477.938, 323.158 478.801, 327.250 480.491 C 330.384 481.785, 329.271 477.395, 325.750 474.574 C 323.962 473.142, 321.901 471.474, 321.168 470.869 C 320.189 470.059, 318.420 470.171, 314.490 471.289 C 308.831 472.899, 308 472.722, 308 469.913 C 308 467.876, 304.245 466.786, 298.549 467.170 C 295.493 467.376, 294.312 466.902, 292.429 464.712 C 289.751 461.599, 287 461.150, 287 463.826 M 367.500 471.557 C 368.600 472.470, 372.046 474.444, 375.157 475.944 C 378.268 477.445, 381.907 479.943, 383.243 481.496 C 385.806 484.476, 388 484.246, 388 480.997 C 388 477.356, 383.822 474.293, 376.500 472.565 C 372.650 471.656, 368.600 470.684, 367.500 470.405 L 365.500 469.896 367.500 471.557 M 332.471 478.866 C 332.947 481.035, 332.785 482, 331.945 482 C 328.359 482, 339.976 488.555, 347.994 491.057 C 351.015 491.999, 353.534 493.385, 353.592 494.135 C 353.649 494.886, 353.764 496.014, 353.848 496.641 C 354.066 498.279, 360.592 500.653, 367 501.427 C 370.025 501.792, 374.607 503.033, 377.182 504.184 C 381.723 506.215, 381.819 506.347, 380.362 508.570 C 378.969 510.697, 379.028 510.967, 381.180 512.309 C 382.456 513.105, 385.075 514.038, 387 514.382 L 390.500 515.008 387.250 512.431 C 383.698 509.616, 383.210 507.427, 385.468 504.441 C 387.755 501.418, 387.319 500.447, 382.756 498.402 C 379.232 496.823, 376.603 496.551, 367.256 496.798 C 358.040 497.041, 356 496.837, 356 495.670 C 356 494.886, 356.675 493.685, 357.500 493 C 360.137 490.811, 359.126 489.269, 354.250 488.045 C 349.309 486.804, 340.924 482.491, 335.141 478.216 L 331.782 475.732 332.471 478.866 M 426.496 485.007 C 425.775 486.173, 426.032 486.269, 436 488.555 C 445.069 490.634, 447.328 491.703, 446.609 493.577 C 446.194 494.658, 447.002 495, 449.972 495 C 452.123 495, 454.120 494.615, 454.410 494.145 C 455.665 492.115, 446.055 486, 441.609 486 C 440.239 486, 438.840 485.550, 438.500 485 C 437.692 483.693, 427.304 483.699, 426.496 485.007 M 397.380 490.452 C 396.578 492.541, 397.781 493.999, 400.309 494.004 C 401.514 494.007, 404.525 495.355, 407 497 C 409.475 498.645, 412.071 499.993, 412.770 499.996 C 413.468 499.998, 416.725 501.091, 420.007 502.425 C 423.289 503.759, 426.202 504.482, 426.479 504.034 C 427.215 502.843, 419.311 496, 417.201 496 C 416.214 496, 412.953 494.437, 409.954 492.526 C 404.144 488.824, 398.370 487.872, 397.380 490.452 M 91.737 495.952 C 83.176 501.381, 77.538 512.055, 80.040 518.096 C 83.106 525.498, 95.932 533.262, 111.615 537.210 C 119.321 539.150, 123.022 539.439, 139.500 539.389 C 160.641 539.325, 168.552 537.897, 180.712 531.950 C 188.114 528.330, 196.579 520.185, 197.896 515.415 C 199.811 508.479, 194.939 501.038, 185.295 496.172 C 177.851 492.415, 177.397 492.458, 171.870 497.427 C 162.060 506.247, 148.693 510.644, 134.237 509.808 C 124.073 509.219, 116.929 505.973, 109.540 498.584 C 104.730 493.774, 103.432 493, 100.174 493 C 97.703 493, 94.778 494.023, 91.737 495.952 M 403.384 511.605 C 402.645 514.552, 402.641 514.514, 407.436 559.500 C 412.387 605.955, 411.629 601.719, 415.080 602.225 C 417.432 602.570, 418 602.284, 418 600.756 C 418 598.868, 407.517 518.452, 406.462 512.250 C 405.797 508.338, 404.284 508.021, 403.384 511.605 M 587.264 532.250 C 583.127 536.237, 572.223 548.500, 563.035 559.500 C 553.846 570.500, 542.635 582.827, 538.122 586.893 C 533.609 590.960, 529.454 595.151, 528.889 596.207 C 527.387 599.014, 529.373 600.836, 534.328 601.196 L 538.500 601.500 538.791 608.592 C 539.077 615.575, 539.019 615.759, 535.041 620.574 C 532.818 623.263, 531 625.837, 531 626.294 C 531 628.979, 550.719 635.454, 592.500 646.489 C 623.316 654.628, 643.640 660.681, 647.197 662.778 C 649.268 664, 650.429 664.123, 652.197 663.310 C 657.123 661.043, 686.059 637.072, 696.571 626.550 C 712.959 610.145, 715.372 604.710, 715.329 584.308 C 715.311 575.513, 714.944 572.563, 713.616 570.536 C 711.486 567.285, 691.668 557.586, 668.500 548.455 C 645.726 539.480, 602.323 525.014, 598.143 525.006 C 595.331 525.001, 593.567 526.176, 587.264 532.250 M 587.380 540.796 C 581.264 547.233, 570.959 558.350, 564.481 565.500 C 558.002 572.650, 549.114 582.249, 544.731 586.830 C 540.347 591.412, 537.152 595.530, 537.630 595.981 C 539.721 597.954, 638.514 631, 642.320 631 C 646.140 631, 654.289 623.938, 677.665 600.366 C 690.956 586.965, 702.318 576, 702.915 576 C 703.512 576, 704 577.507, 704 579.350 C 704 582.428, 702.359 584.203, 683.750 601.260 C 672.612 611.468, 659.900 623.185, 655.500 627.298 L 647.500 634.776 649.625 637.138 C 653.154 641.060, 654 643.576, 654 650.150 L 654 656.432 659.250 651.359 C 662.138 648.569, 670.575 641.403, 678 635.434 C 700.953 616.984, 707.673 608.798, 709.913 596.566 C 711.143 589.853, 711.347 575.093, 710.235 573.346 C 707.794 569.513, 658.847 546.854, 635.444 538.723 C 625.254 535.183, 601.070 528.782, 598.880 529.046 C 598.671 529.071, 593.496 534.358, 587.380 540.796 M 458.103 535.526 C 453.236 539.923, 449.394 546.407, 444.598 558.318 C 441.179 566.806, 431.741 598.075, 432.399 598.732 C 432.575 598.909, 434.874 594.204, 437.507 588.276 C 440.140 582.349, 444.265 574.007, 446.674 569.737 C 456.790 551.808, 464.390 534.056, 462.681 532.348 C 462.404 532.071, 460.344 533.501, 458.103 535.526 M 420.336 578.566 C 419.716 580.184, 420.695 595.772, 421.667 599.750 C 422.778 604.297, 424.652 601.735, 428.283 590.705 C 430.327 584.493, 432 578.868, 432 578.205 C 432 576.264, 421.090 576.601, 420.336 578.566 M 397.500 580.208 C 383.690 586.127, 381.057 590.613, 389 594.693 C 393.008 596.752, 407.066 601.325, 407.564 600.732 C 407.671 600.604, 407.347 597.350, 406.844 593.500 C 406.341 589.650, 405.693 584.587, 405.404 582.250 C 405.113 579.899, 404.346 578.015, 403.689 578.033 C 403.035 578.051, 400.250 579.030, 397.500 580.208 M 448.476 584.250 C 445.276 592.923, 443.316 600, 444.112 600 C 444.658 600, 448.211 599.294, 452.006 598.430 C 458.478 596.958, 464 593.982, 464 591.966 C 464 589.633, 454.019 583, 450.508 583 C 449.644 583, 448.730 583.563, 448.476 584.250 M 383.060 638.892 C 382.885 684.295, 382.669 682.926, 390.805 688.099 C 398.968 693.288, 407.923 695.460, 421 695.424 C 434.249 695.387, 442.367 693.629, 454.311 688.210 C 459.850 685.697, 462.540 683.857, 463.561 681.883 C 464.743 679.596, 465 671.930, 465 638.943 C 465 602.872, 464.840 598.847, 463.431 599.388 C 459.119 601.043, 440.808 604.111, 429.459 605.081 C 411.704 606.598, 396.920 604.774, 384.857 599.576 C 383.351 598.927, 383.202 602.184, 383.060 638.892 M 542.493 610.337 C 542.129 614.277, 541.981 619.292, 542.165 621.483 C 542.483 625.263, 542.803 625.610, 548.461 628.316 C 561.231 634.425, 605.040 647.946, 630.403 653.606 C 636.506 654.969, 642.264 656.312, 643.199 656.593 C 647.915 658.007, 650.925 648.193, 647.343 643.080 C 645.239 640.075, 623.485 629.614, 607 623.679 C 600.125 621.204, 584.825 616.194, 573 612.546 C 561.175 608.899, 549.622 605.297, 547.327 604.544 L 543.154 603.174 542.493 610.337" stroke="none" fill="#0a0a0a" fill-rule="evenodd"/><path d="M 0 364.501 L 0 729.002 460.250 728.751 L 920.500 728.500 920.751 364.250 L 921.003 -0 460.501 -0 L 0 0 0 364.501 M 0.495 365 C 0.495 565.475, 0.610 647.488, 0.750 547.250 C 0.890 447.013, 0.890 282.988, 0.750 182.750 C 0.610 82.513, 0.495 164.525, 0.495 365 M 518.054 52.078 C 513.409 52.601, 504.480 54.180, 498.211 55.586 C 487.442 58.001, 486.711 58.048, 484.930 56.436 C 482.200 53.966, 478.323 54.901, 462.165 61.928 L 448.194 68.004 439.066 65.022 C 417.796 58.071, 384.501 52.048, 367.136 52.010 L 362.773 52 363.472 56.663 C 364.573 64.005, 369.433 76.764, 379.979 100 C 385.346 111.825, 390.866 124.650, 392.247 128.500 C 394.949 136.034, 396.610 144, 395.479 144 C 395.095 144, 390.218 142.020, 384.641 139.601 C 379.063 137.182, 372.700 134.709, 370.500 134.107 C 365.449 132.723, 356.661 132.642, 357.492 133.987 C 357.827 134.529, 362.691 136.384, 368.301 138.109 C 380.420 141.834, 391.815 146.916, 394.261 149.687 C 395.809 151.441, 395.930 152.873, 395.261 161.590 C 394.371 173.182, 396.165 172.353, 377.882 169.628 C 366.834 167.981, 361 168.147, 361 170.108 C 361 170.599, 361.366 171, 361.814 171 C 365.695 171, 386.482 174.337, 390.126 175.545 L 394.751 177.078 395.182 188.326 C 395.569 198.432, 395.943 200.282, 398.862 206.537 C 403.221 215.877, 415.065 233.360, 424.920 245 C 433.219 254.803, 434.247 256.522, 431.250 255.591 C 424.426 253.471, 400.811 247.854, 392.988 246.490 C 374.357 243.241, 356.734 244.872, 350.285 250.441 L 347.500 252.846 353.500 250.807 C 358.716 249.034, 361.132 248.839, 372 249.310 C 378.875 249.607, 388.550 250.570, 393.500 251.449 C 406.473 253.753, 435.288 261.032, 436.713 262.365 C 437.380 262.989, 438.055 265.075, 438.213 267 L 438.500 270.500 425.500 270 C 383.294 268.377, 364.909 270.785, 362.064 278.308 C 361.041 281.012, 361.752 282.450, 363.425 281.062 C 368.979 276.453, 388.431 274.434, 412.293 275.990 C 421.725 276.605, 429.605 277.271, 429.803 277.470 C 430.391 278.058, 412.182 311.918, 407.397 319.137 C 401.546 327.962, 391.274 337.424, 383.652 341.010 C 369.756 347.546, 353.805 354.080, 349.084 355.170 C 345.180 356.071, 342.795 356.049, 338.416 355.069 L 332.777 353.807 326.061 339.653 C 322.367 331.869, 314.694 315.375, 309.009 303 C 298.904 281.002, 293.876 273, 290.158 273 C 286.483 273, 289.972 282.877, 306.418 319.031 C 315.524 339.049, 322.642 355.708, 322.237 356.053 C 321.832 356.397, 319.925 357.290, 318 358.036 C 311.972 360.373, 305.155 365.001, 301.567 369.193 L 298.115 373.226 273.307 365.506 C 233.925 353.251, 211.328 344.350, 209.118 340.221 C 208.532 339.125, 205.319 328.839, 201.980 317.364 C 198.641 305.889, 194.605 293.692, 193.012 290.259 C 189.785 283.310, 182.393 275.275, 176.397 272.199 C 172.650 270.277, 172.500 270.007, 172.500 265.173 C 172.500 258.067, 170.142 255.364, 159.353 250.105 C 150.769 245.921, 150.284 245.511, 149.222 241.540 C 147.900 236.599, 145.183 235, 138.108 235 C 132.188 235, 130.259 236.847, 129.820 242.934 L 129.500 247.364 122.092 249.179 C 113.449 251.298, 106.986 254.788, 105.067 258.376 C 104.125 260.135, 103.894 262.715, 104.317 266.759 L 104.928 272.601 98.794 277.051 C 83.923 287.837, 74.204 305.519, 68.923 331.393 C 62.264 364.020, 59.302 373.899, 54.701 378.838 C 53.491 380.137, 49.480 383.160, 45.789 385.555 C 37.403 390.996, 33 396.766, 33 402.316 C 33 406.013, 33.622 406.937, 40.827 413.951 C 53.373 426.165, 62.786 430.240, 86.743 433.831 L 98.339 435.569 99.582 441.666 C 100.967 448.455, 102.150 451.056, 107.398 458.850 C 112.267 466.082, 112.175 469.333, 106.918 475.985 C 104.673 478.825, 102.230 482.598, 101.490 484.369 C 100.384 487.016, 99.165 487.898, 94.642 489.324 C 78.202 494.506, 69.279 508.800, 74.755 521.180 C 78.991 530.755, 98.339 539.576, 122.467 542.932 C 133.443 544.459, 154.077 544.248, 163.965 542.508 C 180.006 539.685, 189.429 535.545, 197.771 527.655 C 212.479 513.745, 210 505.680, 186.500 490.973 C 170.255 480.807, 165.990 475.981, 166.007 467.782 C 166.014 464.291, 167.274 462.033, 173.229 454.846 C 178.047 449.031, 180.207 443.752, 179.841 438.685 L 179.548 434.628 187.524 433.323 C 212.630 429.216, 239.875 415.878, 245.542 404.920 C 249.823 396.640, 244.070 388.105, 231.856 384.617 C 225.930 382.925, 221.746 379.246, 218.347 372.737 C 216.641 369.469, 209.990 350.690, 210.394 350.278 C 210.513 350.156, 215.536 351.359, 221.556 352.953 C 234.235 356.309, 248.436 361.157, 273 370.514 C 282.625 374.181, 291.697 377.620, 293.161 378.157 C 295.769 379.114, 295.829 379.335, 296.173 389.317 C 296.598 401.603, 298.221 405.524, 304.923 410.444 C 317.648 419.785, 324.509 421.303, 337.685 417.693 L 346.855 415.180 348.503 419.298 C 350.421 424.093, 350.781 423.642, 340 429.956 C 317.479 443.145, 278.690 459.360, 247.655 468.558 C 237.672 471.516, 237.590 470.990, 249 477.260 C 267.637 487.502, 289.084 494.710, 324.308 502.569 C 338.069 505.639, 351.627 509.011, 354.435 510.062 C 362.687 513.149, 370.180 518.176, 373.722 523 C 379.237 530.513, 378.895 530.291, 383.992 529.687 C 386.570 529.382, 391.227 528.272, 394.340 527.221 L 400 525.310 400 529.997 C 400 532.574, 400.896 542.742, 401.991 552.592 C 403.086 562.441, 403.986 571.216, 403.991 572.092 C 403.997 573.101, 402.446 574.149, 399.750 574.955 C 393.886 576.710, 384.951 581.329, 381.017 584.639 L 377.735 587.400 378.475 634.417 C 378.882 660.276, 379.563 682.348, 379.990 683.467 C 382.115 689.041, 390.467 694.150, 403.169 697.646 C 412.542 700.225, 434.850 699.989, 445.154 697.201 C 453.720 694.884, 461.696 691.158, 464.085 688.358 C 468.357 683.351, 468.500 681.578, 468.500 633.643 L 468.500 587.786 465.056 584.908 C 463.162 583.325, 459.199 581.030, 456.250 579.808 C 449.800 577.134, 449.716 578.154, 457.951 559 C 466.054 540.154, 467.196 536.795, 466.825 532.909 C 466.376 528.200, 463.005 527.899, 456.794 532.013 C 450.660 536.076, 447.069 541.692, 441.544 555.858 C 439.046 562.261, 436.201 568.816, 435.220 570.425 C 433.495 573.255, 433.212 573.341, 426.474 573.097 C 422.644 572.958, 419.364 572.697, 419.184 572.517 C 418.521 571.854, 412.167 521.538, 412.648 520.760 C 413.825 518.855, 426.080 513.631, 442.662 507.964 C 452.473 504.611, 470.778 498.007, 483.341 493.287 L 506.181 484.706 514.495 485.999 C 524.575 487.567, 529.035 486.956, 534.249 483.290 C 545.195 475.594, 553.205 473.050, 566.590 473.017 C 572.705 473.002, 576.830 474.019, 596.590 480.412 C 609.191 484.489, 646.950 496.680, 680.500 507.504 C 714.050 518.328, 771.200 536.775, 807.500 548.498 C 843.800 560.221, 874.509 570.109, 875.742 570.471 C 877.516 570.992, 878.230 570.589, 879.165 568.538 C 879.879 566.969, 879.981 565.623, 879.423 565.127 C 878.915 564.677, 858.651 557.637, 834.391 549.483 L 790.283 534.657 789.641 524.173 C 789.289 518.407, 788.993 509.146, 788.984 503.594 C 788.963 490.256, 787.456 472.618, 785.106 458.197 C 784.057 451.764, 782.680 442.778, 782.045 438.229 C 779.394 419.241, 772.926 401.612, 763.438 387.521 C 755.689 376.012, 755.024 374.729, 750.980 363.500 C 747.934 355.043, 747.729 353.625, 747.578 340 C 747.401 323.927, 746.529 320.779, 739.369 310.378 C 737.343 307.433, 735.609 303.502, 735.290 301.128 C 734.773 297.267, 735.020 296.725, 739.118 292.750 C 741.528 290.413, 744.783 287.600, 746.351 286.500 L 749.202 284.500 744.428 276.500 C 738.454 266.489, 731.011 250.246, 731.005 247.203 C 731.002 245.696, 732.029 244.322, 733.994 243.203 C 738.879 240.424, 737.937 238.040, 727.273 226.199 L 721.047 219.285 725.023 217.723 C 727.211 216.864, 729 215.529, 729 214.756 C 729 213.983, 722.667 206.409, 714.927 197.925 C 700.089 181.663, 690.467 168.510, 687.462 160.385 C 686.469 157.698, 685.228 154.938, 684.705 154.250 C 684.092 153.443, 684.156 152.517, 684.887 151.636 C 685.744 150.604, 685.509 148.597, 683.922 143.386 C 680.832 133.243, 678.115 129.251, 667.391 119.102 L 657.715 109.944 658.285 103.144 C 658.669 98.562, 660.999 90.029, 665.427 76.986 C 669.042 66.340, 672 56.362, 672 54.814 C 672 52.158, 671.755 52, 667.631 52 C 660.477 52, 646.748 54.730, 625 60.477 C 613.725 63.457, 601.525 66.435, 597.889 67.095 L 591.278 68.294 585.293 64.600 C 568.173 54.033, 542.738 49.296, 518.054 52.078 M 648.500 60.454 C 614.777 66.419, 579.794 78.405, 560.260 90.687 C 551.581 96.144, 545.840 98.168, 544.624 96.200 C 542.743 93.158, 548.708 89.164, 569.015 79.868 C 576.432 76.473, 582.917 73.324, 583.426 72.871 C 585.112 71.372, 580.912 68.133, 574.634 66.088 C 549.453 57.887, 502.269 57.059, 479.256 64.414 C 477.474 64.983, 477.136 64.809, 477.613 63.565 C 478.996 59.962, 470.695 63.195, 461.653 69.782 C 457.679 72.677, 457.094 73.473, 458.403 74.206 C 460.379 75.312, 460.406 77.879, 458.468 80.441 C 457.661 81.509, 457 84.021, 457 86.024 C 457 91.454, 455.961 91.509, 453.505 86.209 C 445.421 68.759, 415.227 57.029, 386.141 60.038 C 374.938 61.197, 374 61.576, 374 64.937 C 374 69.243, 380.398 91.401, 385.289 104.031 C 391.358 119.703, 396.159 128.943, 400.010 132.362 C 403.400 135.372, 403.447 135.763, 401.579 145.500 C 401.040 148.313, 401.539 148.905, 409.598 155 C 419.809 162.723, 437.747 179.586, 436.780 180.554 C 436.405 180.928, 430.114 176.518, 422.799 170.754 C 410.031 160.693, 403.351 156.012, 401.750 156.004 C 401.337 156.002, 401.005 159.938, 401.012 164.750 L 401.024 173.500 409.678 178 C 420.479 183.617, 431.345 193, 427.048 193 C 426.524 193, 423.262 191.031, 419.798 188.625 C 412.656 183.663, 405.781 180, 403.612 180 C 401.478 180, 400.476 189.768, 401.889 196.803 C 402.542 200.053, 404.480 204.655, 406.436 207.601 C 408.310 210.424, 411.667 216.360, 413.895 220.792 C 418.055 229.066, 421.435 233.214, 418.416 226.341 C 412.419 212.689, 411.799 210.743, 413.156 209.820 C 415.291 208.368, 424.508 209.793, 432.273 212.775 C 440.561 215.959, 444.943 220.700, 447.474 229.226 C 449.460 235.913, 449.556 248, 447.622 248 C 446.865 248, 445.712 247.358, 445.061 246.573 C 444.267 245.617, 442.762 245.327, 440.501 245.694 C 438.057 246.090, 436.137 245.630, 433.536 244.022 L 429.946 241.804 435.564 249.652 C 440.170 256.087, 442.157 257.970, 446.606 260.110 C 452.741 263.060, 456 265.678, 456 267.655 C 456 269.404, 452.182 269.319, 449 267.500 C 447.625 266.714, 445.704 266.055, 444.731 266.035 C 443.312 266.007, 443.086 266.544, 443.586 268.750 C 444.488 272.719, 447.186 274.634, 452.954 275.400 C 459.721 276.297, 461 276.877, 461 279.048 C 461 282.020, 459.115 282.364, 453.422 280.429 C 450.473 279.426, 447.789 278.878, 447.456 279.210 C 446.344 280.322, 449.905 285.763, 454.090 289.345 C 461.546 295.727, 473.873 298.127, 478 294 C 481.094 290.906, 480.424 288.538, 475 283.403 C 472.250 280.799, 470 277.827, 470 276.799 C 470 275.771, 469.273 273.820, 468.385 272.465 C 466.856 270.131, 466.875 270, 468.750 270 C 469.839 270, 471.921 270.936, 473.376 272.081 C 475.693 273.904, 477.172 274.129, 485.300 273.892 C 490.404 273.743, 495.104 273.946, 495.746 274.343 C 497.809 275.618, 495.625 278.903, 490.475 282.273 C 483.611 286.764, 483.618 289.559, 490.500 293 C 495.033 295.267, 496.667 295.500, 508 295.500 C 521.651 295.500, 527.935 294.022, 533.451 289.515 L 536.403 287.104 533.636 286.052 C 532.115 285.473, 528.874 285, 526.435 285 C 522.027 285, 520.557 283.768, 523.582 282.607 C 526.249 281.583, 530.924 281.925, 537.356 283.613 C 541.765 284.770, 545.916 285.074, 552.057 284.690 C 563.998 283.943, 576.831 280.497, 574.891 278.558 C 573.983 277.650, 560.426 275.943, 548 275.174 C 535.569 274.404, 535.525 274.393, 540 273.091 C 546.716 271.139, 557.758 271.500, 568.957 274.039 C 577.279 275.926, 579.195 276.083, 580.517 274.986 C 581.389 274.262, 585.658 269.064, 590.004 263.434 C 594.350 257.805, 600.221 251.246, 603.051 248.860 C 609.145 243.721, 612.025 238.990, 614.836 229.500 C 617.157 221.664, 619.133 218.346, 620.848 219.406 C 623.617 221.117, 620.707 233.782, 615.560 242.420 C 614.223 244.664, 610.157 249.406, 606.526 252.958 C 599.756 259.578, 594.022 266.650, 590.101 273.212 L 587.884 276.925 591.613 278.483 C 593.664 279.340, 600.103 281.408, 605.921 283.078 C 632.209 290.624, 644.122 295.271, 645.344 298.454 C 645.670 299.304, 645.788 300, 645.605 300 C 645.422 300, 641.048 298.427, 635.886 296.504 C 626.854 293.140, 604.247 286.212, 589.362 282.245 L 582.225 280.343 579.342 283.571 C 575.840 287.492, 571.131 288.884, 558.234 289.810 L 548.630 290.500 552.899 293.320 C 559.231 297.502, 572.206 310.240, 578.484 318.436 C 581.518 322.397, 584 325.996, 584 326.433 C 584 326.871, 577.685 321.215, 569.966 313.864 C 562.248 306.514, 552.852 298.308, 549.087 295.628 L 542.241 290.756 535.870 293.861 C 532.367 295.569, 526.575 297.727, 523 298.656 C 514.905 300.760, 495.623 301.046, 488.333 299.170 C 484.544 298.195, 482.629 298.128, 481.149 298.920 C 478.552 300.310, 459.995 300.325, 456.315 298.940 C 452.328 297.440, 446.457 291.469, 442.361 284.750 C 440.433 281.588, 438.438 279, 437.928 279 C 435.830 279, 432.776 283.577, 426.113 296.708 C 414.665 319.269, 406.762 330.219, 395.882 338.591 C 390.416 342.797, 377.245 349.921, 372 351.508 C 370.625 351.924, 365.470 354.230, 360.545 356.632 C 355.620 359.035, 350.670 361.016, 349.545 361.036 C 347.734 361.068, 347.843 361.353, 350.500 363.531 C 352.150 364.883, 354.199 365.992, 355.054 365.995 C 358.294 366.005, 367.247 371.357, 369.095 374.389 C 371.737 378.721, 371.529 383.894, 368.552 387.929 C 367.206 389.754, 365.821 392.540, 365.474 394.120 C 364.757 397.383, 366.401 403.258, 368.525 405.020 C 371.009 407.082, 391.302 410.065, 395.137 408.931 C 396.987 408.385, 401.439 407.556, 405.032 407.090 C 408.661 406.619, 416.775 404.181, 423.293 401.603 C 429.743 399.052, 436.704 396.616, 438.761 396.191 C 441.504 395.624, 442.582 394.851, 442.809 393.287 C 443.053 391.612, 442.706 391.264, 441.189 391.661 C 438.732 392.303, 438.345 390.726, 437.468 376.500 C 436.714 364.253, 437.939 354.942, 440.815 351.063 C 444.012 346.751, 444.764 347.780, 442.754 353.714 C 438.690 365.715, 439.639 386.990, 444.203 386.223 C 446.750 385.796, 447.175 387.352, 447.592 398.616 C 448.004 409.773, 448.808 412.487, 451.999 413.500 C 453.100 413.849, 454 414.948, 454 415.942 C 454 419.252, 456.850 425.885, 460.194 430.358 L 463.500 434.780 471 435.242 C 476.832 435.602, 479.473 435.293, 482.877 433.852 C 488.687 431.394, 492.758 431.515, 504.053 434.481 C 515.567 437.505, 521.108 437.600, 527 434.874 C 529.475 433.729, 536.103 430.846, 541.729 428.467 C 547.355 426.088, 556.286 421.595, 561.575 418.482 C 572.808 411.870, 573.406 410.918, 578.108 392.135 C 581.804 377.371, 582.626 375.403, 586.132 372.906 C 588.964 370.889, 589 370.738, 589 360.800 L 589 350.737 593.518 346.219 C 596.002 343.735, 598.259 341.925, 598.532 342.199 C 598.805 342.472, 597.854 345.263, 596.417 348.400 C 594.356 352.902, 593.688 356.243, 593.247 364.248 C 592.724 373.729, 592.510 374.541, 589.973 376.676 C 586.793 379.352, 585.628 382.012, 583.502 391.450 C 580.578 404.429, 577.772 412.191, 574.764 415.615 C 572.734 417.928, 565.894 421.961, 553.147 428.364 C 530.763 439.606, 523.038 442.755, 515.893 443.547 C 510.910 444.099, 510.085 443.873, 505.034 440.572 C 500.500 437.609, 498.660 437, 494.252 437 C 484.663 437, 476 442.461, 476 448.506 C 476 452.997, 478.864 462.010, 480.489 462.634 C 481.248 462.925, 484.281 461.342, 487.230 459.116 C 491.714 455.731, 498.617 452, 500.396 452 C 501.234 452, 504 455.125, 504 456.071 C 504 456.582, 501.991 457, 499.535 457 C 493.958 457, 488.400 461.352, 487.439 466.471 C 486.614 470.871, 488.205 473.554, 493.130 476.067 C 498.007 478.555, 500 478.029, 500 474.254 C 500 469.601, 502.530 467, 507.057 467 C 510.288 467, 511 467.349, 511 468.934 C 511 470.286, 510.194 470.962, 508.316 471.184 C 504.334 471.653, 503.388 476.076, 506.620 479.113 C 511.322 483.530, 526.830 482.639, 533.500 477.569 C 539.057 473.345, 544.438 471.236, 558 467.969 C 565.425 466.181, 574.739 463.425, 578.697 461.847 C 583.862 459.786, 588.943 458.689, 596.697 457.960 C 608.255 456.873, 617.070 454.462, 626.160 449.902 C 633.458 446.240, 639.160 438.557, 657.626 407.500 C 675.316 377.747, 684.332 365, 687.687 365 C 688.409 365, 689 365.957, 689 367.127 C 689 369.990, 681.766 382.939, 678.443 386.025 C 673.938 390.208, 668.597 398.832, 660.500 415 C 656.234 423.519, 651.037 433, 648.953 436.069 C 643.810 443.643, 635.241 451.264, 627.687 454.982 C 621.117 458.217, 600.550 464.364, 592.322 465.552 C 589.670 465.935, 586.975 466.530, 586.333 466.874 C 584.421 467.900, 649.177 491.268, 697.500 506.989 C 720.392 514.437, 750.390 523.681, 769 529.021 C 776.975 531.309, 784.134 533.703, 784.909 534.341 C 786.113 535.330, 786.221 534.037, 785.652 525.500 C 785.285 520, 784.330 504.250, 783.530 490.500 C 782.730 476.750, 781.604 463.925, 781.027 462 C 780.450 460.075, 779.285 453.775, 778.438 448 C 776.181 432.618, 772.625 417.510, 769.160 408.588 C 767.409 404.078, 762.235 394.893, 756.997 386.996 C 746.413 371.038, 745.577 368.458, 743.951 346.736 C 742.353 325.395, 741.554 322.582, 734.186 312.365 C 725.331 300.086, 725.338 296.339, 734.234 287.288 C 739.152 282.284, 739.304 281.966, 738.047 279.288 C 735.014 272.830, 726 249.625, 726 248.276 C 726 247.469, 726.944 245.483, 728.098 243.863 C 730.947 239.861, 730.205 237.748, 723.040 229.470 C 717.038 222.536, 716.097 220.676, 717.995 219.503 C 718.542 219.165, 719.446 218.036, 720.004 216.993 C 720.806 215.493, 720.523 214.618, 718.644 212.799 C 714.379 208.670, 707.358 199.404, 697.998 185.551 C 692.942 178.067, 685.924 168.805, 682.402 164.968 C 678.881 161.131, 676 157.461, 676 156.811 C 676 156.162, 676.713 153.090, 677.584 149.985 C 680.030 141.270, 678.554 137.328, 669.428 128.202 C 665.367 124.141, 661.472 121, 660.772 121.221 C 659.520 121.618, 658.801 123.617, 653.479 141.500 C 650.924 150.086, 650.495 150.787, 644.151 156.732 L 637.500 162.963 641 163.081 C 642.925 163.146, 645.625 163.538, 647 163.952 C 648.392 164.371, 642.608 164.746, 633.943 164.798 C 594.262 165.038, 555.692 174.411, 535.652 188.684 C 532.986 190.584, 530.611 191.944, 530.375 191.709 C 529.416 190.749, 542.964 179.284, 548.527 176.347 C 556.921 171.916, 570.311 167.391, 581.913 165.065 C 595.094 162.423, 616.759 160.638, 625.840 161.446 C 632.764 162.063, 633.381 161.947, 636.709 159.408 C 643.564 154.180, 648.900 138.430, 651.584 115.500 C 652.421 108.350, 654.257 98.003, 655.663 92.506 C 657.070 87.009, 658.587 79.925, 659.033 76.764 C 659.698 72.060, 661.605 66.973, 665.785 58.750 C 666.376 57.588, 662.590 57.962, 648.500 60.454 M 402.500 67.523 C 407.700 72.006, 412.025 74.031, 419.974 75.702 C 431.152 78.052, 434.125 81.317, 434.125 91.243 C 434.125 94.933, 433.406 99.445, 432.428 101.889 C 430.633 106.374, 431.354 108.569, 434.255 107.456 C 436.989 106.406, 439 99.508, 439 91.176 C 439 83.703, 438.870 83.267, 435.750 80.261 C 430.507 75.209, 421.188 70.154, 411.246 66.969 C 399.011 63.050, 397.428 63.151, 402.500 67.523 M 638 65.646 C 637.175 65.915, 632.225 67.514, 627 69.200 C 610.374 74.564, 598.107 81.465, 580.825 95.175 C 567.803 105.506, 565.105 113.218, 571.750 121.115 C 574.431 124.301, 581.347 128.320, 582.376 127.290 C 584.135 125.532, 582.548 122.672, 578 119.405 C 572.315 115.320, 571.953 113.795, 575.116 107.261 C 578.206 100.877, 584.798 96.459, 608 85.219 C 626.466 76.274, 640 68.074, 640 65.832 C 640 65.374, 639.888 65.036, 639.750 65.079 C 639.612 65.122, 638.825 65.378, 638 65.646 M 596.921 188.482 C 584.060 190.649, 562.953 197.648, 561.322 200.288 C 560.898 200.974, 561.338 201.072, 562.586 200.570 C 563.639 200.147, 569.610 198.496, 575.855 196.901 C 605.596 189.305, 637.135 189.128, 655.274 196.455 C 660.592 198.603, 660.990 198.647, 659.422 196.914 C 656.720 193.928, 648.248 190.336, 639.792 188.591 C 630.476 186.668, 608.025 186.611, 596.921 188.482 M 420.725 215.609 C 419.289 217.045, 420.066 222.600, 422.407 227.627 C 424.980 233.153, 427.771 236.158, 425.997 231.492 C 424.447 227.415, 424.820 222.807, 426.989 219.250 C 428.813 216.259, 428.832 215.999, 427.235 215.986 C 426.281 215.979, 424.589 215.728, 423.475 215.428 C 422.361 215.129, 421.123 215.210, 420.725 215.609 M 536.327 218.458 C 533.191 219.823, 526.034 226.520, 523.341 230.612 C 522.576 231.774, 521.675 235.824, 521.338 239.612 C 521.002 243.401, 520.307 247.034, 519.794 247.686 C 518.166 249.757, 520.694 252.657, 527.397 256.405 C 535.905 261.163, 540.352 261.192, 549.616 256.551 C 559.368 251.664, 575.561 237.274, 580.409 229.187 C 582.723 225.326, 571.994 220.965, 554.216 218.539 C 540.736 216.701, 540.372 216.699, 536.327 218.458 M 435.492 221.750 C 436.901 225.245, 437.221 230.929, 436.176 233.924 C 435.246 236.592, 435.369 237.127, 437.132 238.071 C 439.925 239.565, 442 238.530, 442 235.644 C 442 233.278, 436.312 220, 435.299 220 C 435.017 220, 435.104 220.787, 435.492 221.750 M 549.429 228.532 C 551.070 231.037, 551.050 231.081, 547.576 232.532 C 545.645 233.340, 542.925 234, 541.532 234 C 537.412 234, 538.638 235.834, 543.750 237.319 C 548.162 238.599, 548.522 238.951, 548.805 242.250 C 548.972 244.205, 548.432 247.423, 547.606 249.402 C 546.779 251.381, 546.347 253, 546.645 253 C 547.710 253, 563.872 240.940, 568.644 236.585 C 572.767 232.822, 573.333 231.877, 572.392 230.328 C 570.805 227.714, 564.700 226.165, 555.635 226.077 L 547.770 226 549.429 228.532 M 531.046 230.137 C 527.738 235.534, 524.829 244.183, 525.468 246.727 C 525.790 248.011, 527.504 249.946, 529.277 251.027 C 533.460 253.578, 534.345 253.513, 532.874 250.764 C 531.435 248.076, 531.465 235.857, 532.922 231.066 C 534.329 226.437, 533.551 226.052, 531.046 230.137 M 137.811 241.713 C 136.950 242.696, 135.636 245.228, 134.890 247.340 C 133.259 251.956, 132.682 252.293, 122.562 254.530 C 110.722 257.147, 108.190 260.437, 111.551 268.837 C 112.957 272.350, 113.685 272.892, 119.301 274.607 C 128.578 277.440, 146.018 277.211, 156 274.125 C 160.125 272.849, 164.063 271.345, 164.750 270.781 C 165.438 270.217, 166 267.832, 166 265.483 C 166 259.835, 163.241 257.232, 153.826 254 C 147.487 251.824, 146.432 251.112, 145.674 248.500 C 143.385 240.615, 140.759 238.348, 137.811 241.713 M 165 277.606 C 155.463 281.770, 144.467 284.127, 134.376 284.171 C 123.669 284.217, 120.436 283.793, 112.691 281.329 C 109.899 280.441, 106.506 280.058, 104.603 280.415 C 95.379 282.145, 87.027 295.746, 81.832 317.500 C 66.929 379.905, 65.927 383.082, 58.853 390.344 C 50.357 399.066, 49.776 407.604, 57.301 413.164 C 73.954 425.469, 102.637 432, 140.024 432 C 182.375 432, 219.231 422.695, 235.395 407.922 C 244.239 399.839, 243.211 396.629, 229.657 390 C 224.199 387.331, 221.610 385.313, 218.752 381.500 C 209.589 369.278, 203.502 353.335, 200.012 332.415 C 195.431 304.961, 192.621 297.123, 183.961 287.648 C 179.826 283.124, 170.453 275.893, 168.912 276.039 C 168.686 276.061, 166.925 276.766, 165 277.606 M 320.222 362.470 C 314.422 364.281, 309.654 368.108, 305.484 374.300 C 301.401 380.363, 301.119 383.909, 304.075 392 C 305.180 395.025, 306.531 398.943, 307.077 400.706 C 308.980 406.852, 318.124 412.202, 329 413.532 C 335.204 414.290, 338.503 412.439, 338.490 408.207 C 338.485 406.443, 338.959 405, 339.543 405 C 340.128 405, 344.570 407.489, 349.414 410.530 C 356.359 414.891, 358.516 415.817, 359.611 414.908 C 361.636 413.227, 361.353 404.174, 359.044 396.771 C 357.968 393.322, 356.358 387.800, 355.466 384.500 C 354.053 379.271, 352.923 377.591, 346.672 371.427 C 336.787 361.679, 330.055 359.399, 320.222 362.470 M 355 371.025 C 355 372.536, 361.787 385.751, 362.925 386.454 C 364.214 387.250, 366 383.802, 366 380.516 C 366 377.129, 363.504 372.340, 361.055 371.030 C 358.579 369.705, 355 369.702, 355 371.025 M 430 401.953 C 421.327 404.925, 409.097 409.846, 410 410.001 C 410.275 410.049, 419.275 412.938, 430 416.422 C 440.725 419.906, 449.568 422.699, 449.652 422.628 C 449.947 422.379, 444.185 401.109, 443.539 400.062 C 442.489 398.365, 439.088 398.840, 430 401.953 M 367.259 414.662 C 369.868 419.480, 370.478 420, 373.510 420 C 383.158 420, 399.620 425.376, 423.922 436.465 C 445.874 446.480, 467.498 453.048, 469.893 450.427 C 470.358 449.917, 470.995 447.813, 471.307 445.751 C 471.943 441.544, 471.089 440.730, 464.855 439.606 C 462.443 439.171, 459.904 437.592, 457.355 434.943 C 453.733 431.181, 451.921 430.425, 427.435 422.469 C 407.818 416.095, 400.026 413.999, 395.935 413.995 C 392.946 413.992, 384.620 412.939, 377.434 411.656 L 364.368 409.324 367.259 414.662 M 374.677 424.682 C 373.200 425.081, 372.955 425.870, 373.385 428.837 C 374.683 437.775, 375.127 445.023, 374.499 447.002 C 373.854 449.035, 373.721 449.058, 371.935 447.441 C 370.899 446.503, 369.774 444.863, 369.435 443.796 C 369.058 442.606, 368.249 442.074, 367.346 442.421 C 364.830 443.386, 360.218 440.203, 355.957 434.560 C 351.967 429.275, 351.798 429.174, 348.686 430.234 C 346.934 430.831, 335.600 436.368, 323.500 442.538 C 301.195 453.912, 282.787 461.698, 262.063 468.523 L 250.626 472.290 253.563 474.649 C 262.638 481.939, 281.796 488.886, 319.207 498.452 C 356.126 507.893, 369.463 512.975, 380.763 521.907 L 385.933 525.993 391.216 524.881 C 399.561 523.123, 399.500 523.205, 399.500 513.814 L 399.500 505.500 402.704 505.190 C 407.886 504.689, 410 506.419, 410 511.163 L 410 515.256 414.250 514.581 C 421.633 513.408, 437.829 507.504, 458.500 498.451 C 469.500 493.634, 482.748 488.205, 487.941 486.388 C 494.885 483.958, 496.869 482.905, 495.441 482.407 C 486.893 479.427, 484.888 478.002, 482.891 473.485 C 481.713 470.824, 479.824 468.421, 478.397 467.771 C 476.867 467.074, 474.819 464.311, 472.986 460.471 L 470.038 454.293 463.086 453.710 C 453.980 452.947, 438.966 447.849, 415.410 437.522 C 389.940 426.356, 380.036 423.234, 374.677 424.682 M 118.750 437.747 L 107 438.063 107 441.581 C 107 446.032, 108.849 449.565, 113.500 454 C 121.809 461.923, 122.187 469.832, 114.595 476.924 C 112.548 478.836, 112 480.296, 112 483.829 C 112 493.079, 122.980 499, 140.134 499 C 155.507 499, 166.009 493.659, 165.993 485.850 C 165.986 482.186, 163.499 477.739, 160.144 475.388 C 157.577 473.590, 157.349 469.481, 159.432 462.559 C 160.471 459.108, 162.652 455.949, 167.373 451.058 C 173.597 444.612, 175.948 440.343, 174.535 438.057 C 173.911 437.047, 149.692 436.913, 118.750 437.747 M 320.569 453.888 C 319.739 455.231, 334.785 460.799, 346.433 463.460 C 348.046 463.828, 351.082 464.959, 353.180 465.973 C 356.733 467.690, 358.883 467.237, 357.535 465.057 C 356.099 462.733, 341.516 455.793, 335.302 454.476 C 327.548 452.833, 321.374 452.587, 320.569 453.888 M 380.500 455.894 C 382.700 456.940, 387.958 459.221, 392.184 460.963 C 397.586 463.191, 401.538 465.711, 405.496 469.453 C 411.705 475.325, 419.657 479.173, 421.021 476.967 C 422.222 475.023, 421.068 473.055, 418.323 472.366 C 416.972 472.027, 414.796 470.053, 413.486 467.978 C 411.235 464.411, 410.330 463.959, 396.803 459.634 C 388.936 457.119, 381.150 454.821, 379.500 454.527 C 376.827 454.052, 376.936 454.201, 380.500 455.894 M 287 463.826 C 287 466.590, 290.554 469.317, 300.866 474.463 C 308.710 478.377, 310.829 479.036, 313.906 478.516 C 317.326 477.938, 323.158 478.801, 327.250 480.491 C 330.384 481.785, 329.271 477.395, 325.750 474.574 C 323.962 473.142, 321.901 471.474, 321.168 470.869 C 320.189 470.059, 318.420 470.171, 314.490 471.289 C 308.831 472.899, 308 472.722, 308 469.913 C 308 467.876, 304.245 466.786, 298.549 467.170 C 295.493 467.376, 294.312 466.902, 292.429 464.712 C 289.751 461.599, 287 461.150, 287 463.826 M 367.500 471.557 C 368.600 472.470, 372.046 474.444, 375.157 475.944 C 378.268 477.445, 381.907 479.943, 383.243 481.496 C 385.806 484.476, 388 484.246, 388 480.997 C 388 477.356, 383.822 474.293, 376.500 472.565 C 372.650 471.656, 368.600 470.684, 367.500 470.405 L 365.500 469.896 367.500 471.557 M 332.471 478.866 C 332.947 481.035, 332.785 482, 331.945 482 C 328.359 482, 339.976 488.555, 347.994 491.057 C 351.015 491.999, 353.534 493.385, 353.592 494.135 C 353.649 494.886, 353.764 496.014, 353.848 496.641 C 354.066 498.279, 360.592 500.653, 367 501.427 C 370.025 501.792, 374.607 503.033, 377.182 504.184 C 381.723 506.215, 381.819 506.347, 380.362 508.570 C 378.969 510.697, 379.028 510.967, 381.180 512.309 C 382.456 513.105, 385.075 514.038, 387 514.382 L 390.500 515.008 387.250 512.431 C 383.698 509.616, 383.210 507.427, 385.468 504.441 C 387.755 501.418, 387.319 500.447, 382.756 498.402 C 379.232 496.823, 376.603 496.551, 367.256 496.798 C 358.040 497.041, 356 496.837, 356 495.670 C 356 494.886, 356.675 493.685, 357.500 493 C 360.137 490.811, 359.126 489.269, 354.250 488.045 C 349.309 486.804, 340.924 482.491, 335.141 478.216 L 331.782 475.732 332.471 478.866 M 426.496 485.007 C 425.775 486.173, 426.032 486.269, 436 488.555 C 445.069 490.634, 447.328 491.703, 446.609 493.577 C 446.194 494.658, 447.002 495, 449.972 495 C 452.123 495, 454.120 494.615, 454.410 494.145 C 455.665 492.115, 446.055 486, 441.609 486 C 440.239 486, 438.840 485.550, 438.500 485 C 437.692 483.693, 427.304 483.699, 426.496 485.007 M 397.380 490.452 C 396.578 492.541, 397.781 493.999, 400.309 494.004 C 401.514 494.007, 404.525 495.355, 407 497 C 409.475 498.645, 412.071 499.993, 412.770 499.996 C 413.468 499.998, 416.725 501.091, 420.007 502.425 C 423.289 503.759, 426.202 504.482, 426.479 504.034 C 427.215 502.843, 419.311 496, 417.201 496 C 416.214 496, 412.953 494.437, 409.954 492.526 C 404.144 488.824, 398.370 487.872, 397.380 490.452 M 91.737 495.952 C 83.176 501.381, 77.538 512.055, 80.040 518.096 C 83.106 525.498, 95.932 533.262, 111.615 537.210 C 119.321 539.150, 123.022 539.439, 139.500 539.389 C 160.641 539.325, 168.552 537.897, 180.712 531.950 C 188.114 528.330, 196.579 520.185, 197.896 515.415 C 199.811 508.479, 194.939 501.038, 185.295 496.172 C 177.851 492.415, 177.397 492.458, 171.870 497.427 C 162.060 506.247, 148.693 510.644, 134.237 509.808 C 124.073 509.219, 116.929 505.973, 109.540 498.584 C 104.730 493.774, 103.432 493, 100.174 493 C 97.703 493, 94.778 494.023, 91.737 495.952 M 403.384 511.605 C 402.645 514.552, 402.641 514.514, 407.436 559.500 C 412.387 605.955, 411.629 601.719, 415.080 602.225 C 417.432 602.570, 418 602.284, 418 600.756 C 418 598.868, 407.517 518.452, 406.462 512.250 C 405.797 508.338, 404.284 508.021, 403.384 511.605 M 587.264 532.250 C 583.127 536.237, 572.223 548.500, 563.035 559.500 C 553.846 570.500, 542.635 582.827, 538.122 586.893 C 533.609 590.960, 529.454 595.151, 528.889 596.207 C 527.387 599.014, 529.373 600.836, 534.328 601.196 L 538.500 601.500 538.791 608.592 C 539.077 615.575, 539.019 615.759, 535.041 620.574 C 532.818 623.263, 531 625.837, 531 626.294 C 531 628.979, 550.719 635.454, 592.500 646.489 C 623.316 654.628, 643.640 660.681, 647.197 662.778 C 649.268 664, 650.429 664.123, 652.197 663.310 C 657.123 661.043, 686.059 637.072, 696.571 626.550 C 712.959 610.145, 715.372 604.710, 715.329 584.308 C 715.311 575.513, 714.944 572.563, 713.616 570.536 C 711.486 567.285, 691.668 557.586, 668.500 548.455 C 645.726 539.480, 602.323 525.014, 598.143 525.006 C 595.331 525.001, 593.567 526.176, 587.264 532.250 M 587.380 540.796 C 581.264 547.233, 570.959 558.350, 564.481 565.500 C 558.002 572.650, 549.114 582.249, 544.731 586.830 C 540.347 591.412, 537.152 595.530, 537.630 595.981 C 539.721 597.954, 638.514 631, 642.320 631 C 646.140 631, 654.289 623.938, 677.665 600.366 C 690.956 586.965, 702.318 576, 702.915 576 C 703.512 576, 704 577.507, 704 579.350 C 704 582.428, 702.359 584.203, 683.750 601.260 C 672.612 611.468, 659.900 623.185, 655.500 627.298 L 647.500 634.776 649.625 637.138 C 653.154 641.060, 654 643.576, 654 650.150 L 654 656.432 659.250 651.359 C 662.138 648.569, 670.575 641.403, 678 635.434 C 700.953 616.984, 707.673 608.798, 709.913 596.566 C 711.143 589.853, 711.347 575.093, 710.235 573.346 C 707.794 569.513, 658.847 546.854, 635.444 538.723 C 625.254 535.183, 601.070 528.782, 598.880 529.046 C 598.671 529.071, 593.496 534.358, 587.380 540.796 M 458.103 535.526 C 453.236 539.923, 449.394 546.407, 444.598 558.318 C 441.179 566.806, 431.741 598.075, 432.399 598.732 C 432.575 598.909, 434.874 594.204, 437.507 588.276 C 440.140 582.349, 444.265 574.007, 446.674 569.737 C 456.790 551.808, 464.390 534.056, 462.681 532.348 C 462.404 532.071, 460.344 533.501, 458.103 535.526 M 420.336 578.566 C 419.716 580.184, 420.695 595.772, 421.667 599.750 C 422.778 604.297, 424.652 601.735, 428.283 590.705 C 430.327 584.493, 432 578.868, 432 578.205 C 432 576.264, 421.090 576.601, 420.336 578.566 M 397.500 580.208 C 383.690 586.127, 381.057 590.613, 389 594.693 C 393.008 596.752, 407.066 601.325, 407.564 600.732 C 407.671 600.604, 407.347 597.350, 406.844 593.500 C 406.341 589.650, 405.693 584.587, 405.404 582.250 C 405.113 579.899, 404.346 578.015, 403.689 578.033 C 403.035 578.051, 400.250 579.030, 397.500 580.208 M 448.476 584.250 C 445.276 592.923, 443.316 600, 444.112 600 C 444.658 600, 448.211 599.294, 452.006 598.430 C 458.478 596.958, 464 593.982, 464 591.966 C 464 589.633, 454.019 583, 450.508 583 C 449.644 583, 448.730 583.563, 448.476 584.250 M 383.060 638.892 C 382.885 684.295, 382.669 682.926, 390.805 688.099 C 398.968 693.288, 407.923 695.460, 421 695.424 C 434.249 695.387, 442.367 693.629, 454.311 688.210 C 459.850 685.697, 462.540 683.857, 463.561 681.883 C 464.743 679.596, 465 671.930, 465 638.943 C 465 602.872, 464.840 598.847, 463.431 599.388 C 459.119 601.043, 440.808 604.111, 429.459 605.081 C 411.704 606.598, 396.920 604.774, 384.857 599.576 C 383.351 598.927, 383.202 602.184, 383.060 638.892 M 542.493 610.337 C 542.129 614.277, 541.981 619.292, 542.165 621.483 C 542.483 625.263, 542.803 625.610, 548.461 628.316 C 561.231 634.425, 605.040 647.946, 630.403 653.606 C 636.506 654.969, 642.264 656.312, 643.199 656.593 C 647.915 658.007, 650.925 648.193, 647.343 643.080 C 645.239 640.075, 623.485 629.614, 607 623.679 C 600.125 621.204, 584.825 616.194, 573 612.546 C 561.175 608.899, 549.622 605.297, 547.327 604.544 L 543.154 603.174 542.493 610.337" stroke="none" fill="#fbfbfb" fill-rule="evenodd"/></svg>