<?xml version="1.0" standalone="no"?>
<!DOCTYPE svg PUBLIC "-//W3C//DTD SVG 20010904//EN"
 "http://www.w3.org/TR/2001/REC-SVG-20010904/DTD/svg10.dtd">
<svg version="1.0" xmlns="http://www.w3.org/2000/svg"
 width="1280.000000pt" height="954.000000pt" viewBox="0 0 1280.000000 954.000000"
 preserveAspectRatio="xMidYMid meet">

<g transform="translate(0.000000,954.000000) scale(0.100000,-0.100000)"
fill="#000000" stroke="none">
<path d="M4871 9513 c-36 -37 -46 -85 -32 -153 15 -71 15 -75 -20 -114 -27
-32 -30 -40 -24 -80 4 -24 4 -53 0 -65 -9 -31 -61 -27 -117 8 -64 41 -89 80
-98 158 -10 82 -37 113 -101 120 -38 4 -56 -1 -122 -36 -136 -71 -177 -81
-344 -81 -124 0 -171 5 -288 29 -248 51 -664 64 -833 26 -70 -17 -253 -104
-342 -165 -33 -22 -100 -78 -149 -125 -60 -55 -113 -95 -155 -115 -98 -46
-173 -142 -162 -204 7 -38 58 -91 103 -106 24 -9 39 -8 68 4 21 9 44 16 51 16
27 0 13 -42 -30 -88 -33 -35 -53 -73 -83 -152 -60 -155 -75 -223 -77 -340 -5
-212 -80 -349 -302 -557 -435 -405 -720 -877 -855 -1417 -16 -66 -55 -200 -85
-296 -30 -96 -68 -233 -84 -305 -65 -290 -141 -572 -174 -640 -49 -103 -100
-162 -259 -293 -207 -172 -280 -262 -333 -408 -41 -112 -32 -152 56 -236 43
-41 60 -66 64 -90 8 -53 24 -278 25 -336 0 -67 82 -375 121 -456 16 -34 52
-99 80 -146 83 -139 90 -168 120 -452 13 -124 88 -422 135 -535 20 -49 48
-119 61 -156 35 -94 80 -168 183 -300 108 -138 123 -167 145 -282 18 -95 49
-173 89 -227 14 -18 36 -55 50 -83 39 -78 102 -129 267 -218 157 -85 230 -104
435 -117 88 -6 174 -15 192 -21 18 -6 90 -42 160 -81 589 -327 931 -410 1623
-395 547 13 827 46 1505 176 320 62 665 113 1200 181 1049 132 1738 157 2405
90 497 -51 835 -110 1490 -260 334 -77 428 -91 652 -97 259 -8 429 12 675 77
423 113 681 297 847 604 92 170 111 324 60 487 -15 46 -27 102 -28 124 l-1 40
65 17 c87 23 104 45 95 118 -3 30 -10 154 -15 275 -10 279 -22 315 -107 315
-23 0 -43 3 -43 6 0 3 20 29 45 56 49 55 53 74 31 148 -9 30 -10 53 -4 70 10
26 3 70 -10 70 -5 0 -16 6 -27 13 -17 13 -17 15 0 61 17 45 17 49 0 107 -16
53 -17 65 -5 92 23 52 18 112 -10 142 -14 15 -34 32 -45 38 -28 17 -180 25
-630 36 -303 7 -407 12 -465 25 -41 10 -212 50 -380 91 -596 144 -730 171
-915 185 -82 6 -178 17 -211 25 -148 34 -242 103 -309 225 -64 118 -88 138
-257 226 -180 95 -209 106 -433 174 -274 82 -397 137 -425 190 -17 32 -97 73
-144 74 -78 1 -90 -7 -151 -105 -36 -56 -72 -99 -94 -114 -55 -36 -162 -65
-316 -85 -77 -10 -194 -27 -260 -38 -66 -11 -176 -28 -245 -37 -69 -8 -156
-20 -195 -26 -91 -13 -566 -103 -720 -136 -203 -44 -229 -46 -288 -29 -59 18
-72 28 -146 114 l-54 63 6 77 c7 105 -8 228 -40 324 -32 97 -85 161 -182 218
-204 119 -303 242 -357 445 -16 60 -19 108 -19 330 -1 170 -6 287 -14 337 -9
50 -12 123 -9 205 4 111 8 135 30 178 21 41 26 70 31 160 7 125 25 200 71 300
37 80 62 107 72 80 7 -17 -2 -37 -52 -125 -53 -93 -12 -197 113 -283 68 -48
75 -50 131 -48 46 1 93 -8 208 -43 82 -25 177 -57 212 -71 57 -23 74 -25 190
-24 70 1 159 -2 199 -6 89 -9 131 4 191 58 44 41 82 102 82 132 0 8 17 48 37
88 36 69 37 76 36 167 -3 191 24 265 148 396 147 157 188 221 230 359 18 59
22 107 28 300 6 221 7 232 31 275 36 63 97 105 198 136 48 15 110 38 137 52
65 32 367 255 401 295 63 74 88 187 59 262 -25 67 -51 77 -230 86 -339 19
-507 75 -860 289 -150 90 -181 114 -270 204 -156 159 -284 234 -520 306 -228
70 -233 70 -580 80 -176 5 -336 13 -355 18 -19 5 -101 43 -181 85 -92 49 -163
79 -192 83 -42 6 -49 4 -76 -23z m247 -278 c151 -113 231 -128 693 -129 l336
-1 64 -34 c81 -42 196 -124 278 -198 l63 -58 -27 -50 c-23 -43 -26 -59 -23
-119 4 -78 19 -96 79 -96 25 0 48 9 74 30 47 37 84 44 199 37 109 -6 175 -27
237 -76 72 -57 182 -107 344 -157 146 -46 154 -47 317 -53 91 -3 170 -9 173
-13 25 -25 -51 -72 -141 -89 -76 -14 -162 1 -271 47 -179 75 -220 86 -308 82
-70 -3 -92 -8 -175 -48 -52 -24 -117 -58 -145 -74 -27 -16 -79 -41 -115 -56
-59 -24 -67 -31 -92 -79 -18 -33 -28 -69 -28 -95 0 -101 99 -184 172 -145 40
22 44 -5 10 -79 -24 -52 -32 -83 -32 -126 0 -53 3 -61 35 -93 31 -31 40 -34
68 -29 88 18 96 18 126 -3 47 -34 82 -116 88 -208 9 -134 -34 -265 -139 -424
-66 -100 -83 -106 -136 -50 -49 52 -86 54 -174 9 -75 -38 -114 -71 -138 -118
-24 -47 -66 -175 -75 -229 -11 -65 3 -169 26 -192 24 -24 80 -25 109 -1 20 16
23 28 24 100 1 74 3 84 27 108 15 15 31 24 36 21 11 -7 28 -188 27 -294 -1
-56 -6 -82 -28 -127 -27 -55 -66 -96 -92 -96 -23 0 -45 55 -34 85 6 15 10 44
10 66 0 50 -37 92 -77 87 -23 -3 -29 -10 -41 -57 -22 -90 -62 -131 -143 -146
-25 -5 -61 2 -133 25 -85 28 -105 38 -147 80 -30 30 -51 61 -57 86 -48 189
-51 221 -27 322 20 85 35 104 134 172 227 155 266 212 381 562 41 124 36 328
-11 420 -37 74 -118 86 -174 28 -33 -34 -37 -76 -14 -147 15 -48 4 -154 -27
-265 -17 -60 -31 -75 -59 -64 -13 5 -14 10 -4 28 18 33 32 304 18 331 -24 47
-51 67 -91 67 -42 0 -66 -18 -95 -72 -14 -27 -19 -67 -23 -208 -7 -207 -16
-239 -113 -398 -77 -129 -96 -148 -198 -197 l-81 -40 -24 30 c-20 23 -24 38
-20 65 4 26 -6 62 -38 142 -24 59 -49 114 -55 122 -10 12 -5 24 24 64 48 68
157 387 186 548 51 280 15 635 -81 801 -88 152 -311 329 -486 387 -63 21 -93
49 -77 74 8 13 25 17 73 17 53 0 64 3 81 24 27 33 24 59 -13 89 -104 85 -152
142 -122 142 3 0 45 -29 92 -65z m-1572 -232 c167 -23 225 -27 494 -29 285 -2
309 -3 362 -23 93 -36 167 -106 242 -229 68 -112 101 -229 132 -459 14 -108
15 -135 4 -147 -20 -25 -27 -19 -39 27 -24 99 -87 126 -156 66 -45 -40 -58
-88 -59 -219 0 -122 10 -159 90 -325 81 -170 221 -341 322 -395 102 -54 273
-191 306 -244 41 -65 46 -169 18 -321 -12 -61 -28 -155 -37 -210 -20 -131 -40
-188 -77 -225 -34 -34 -89 -40 -137 -15 -28 14 -38 31 -94 157 -52 117 -238
368 -404 547 -53 57 -176 172 -272 256 -338 293 -450 430 -516 635 -40 123
-80 170 -146 170 -100 0 -157 -160 -114 -324 66 -254 325 -592 696 -908 69
-59 140 -129 159 -155 19 -26 72 -91 118 -143 110 -125 157 -191 245 -346 40
-71 96 -163 124 -204 88 -131 125 -215 193 -443 21 -73 55 -177 74 -232 58
-169 68 -249 75 -640 6 -342 7 -351 30 -395 51 -98 79 -112 237 -119 111 -6
124 -9 156 -33 48 -37 107 -128 130 -201 67 -217 32 -732 -87 -1246 -130 -571
-335 -1012 -508 -1095 -89 -43 -460 -106 -625 -106 -84 0 -101 3 -165 32 -127
57 -213 38 -286 -62 -40 -55 -47 -100 -23 -154 24 -52 70 -89 148 -119 52 -19
78 -22 214 -21 138 0 184 5 421 46 146 26 395 76 555 113 803 185 1137 229
1724 229 435 1 668 -20 1445 -130 619 -87 762 -117 1405 -299 855 -242 1076
-283 1443 -272 273 8 398 41 647 168 182 93 227 128 268 208 37 75 39 93 12
161 -30 76 -27 83 20 58 52 -28 61 -43 99 -163 39 -120 42 -201 12 -270 -45
-102 -196 -256 -356 -365 -239 -162 -544 -240 -934 -240 -279 0 -439 21 -816
106 -817 184 -1184 251 -1595 293 -772 80 -1429 46 -2435 -125 -1697 -288
-1882 -315 -2310 -345 -218 -15 -641 -6 -740 16 -217 47 -535 186 -700 304
-27 19 -98 81 -156 137 -58 55 -126 113 -152 128 -46 27 -49 28 -100 14 -35
-9 -117 -13 -252 -13 -196 0 -201 1 -245 25 -78 44 -177 128 -194 165 -10 21
-21 82 -26 153 -6 64 -13 131 -16 147 -12 60 -49 106 -155 195 -60 49 -131
117 -159 151 -117 141 -214 312 -243 431 -28 115 -89 470 -103 607 -25 235
-64 352 -147 450 -59 69 -74 115 -93 281 -9 74 -29 203 -44 285 -26 134 -29
159 -20 235 5 47 14 103 21 124 13 48 86 127 192 209 58 45 97 86 147 156 81
116 112 175 189 368 94 237 116 315 181 662 88 462 296 987 547 1375 169 260
342 456 672 756 114 105 209 224 260 327 50 99 51 133 6 221 -42 81 -59 94
-124 85 -22 -3 -41 -2 -41 3 0 14 38 72 100 154 32 42 80 109 106 150 47 72
49 78 51 150 0 41 2 80 2 86 3 39 130 118 261 164 165 56 277 61 546 23z
m1469 -209 c96 -54 182 -117 217 -159 14 -17 54 -81 88 -143 60 -109 83 -183
62 -196 -25 -15 -43 11 -72 101 -29 89 -81 180 -143 251 -27 29 -68 28 -106
-4 -36 -30 -39 -60 -16 -164 18 -84 18 -100 0 -100 -31 0 -62 49 -83 132 -55
214 -64 255 -63 282 3 59 11 59 116 0z m693 -2509 c26 -64 23 -105 -7 -105
-24 0 -49 29 -61 70 -11 37 11 105 32 98 7 -3 23 -31 36 -63z m2775 -2356 c11
-7 32 -23 46 -36 39 -36 153 -87 281 -126 64 -19 155 -49 203 -66 47 -16 109
-33 137 -37 39 -5 70 -20 142 -70 50 -35 97 -64 103 -64 21 0 94 -59 108 -87
26 -51 30 -90 11 -128 -21 -45 -98 -131 -133 -149 -49 -26 -278 -75 -981 -211
-1174 -227 -1429 -279 -1670 -342 -207 -53 -339 -115 -370 -174 -15 -27 -24
-17 -44 52 -8 31 -26 68 -38 84 -26 34 -98 67 -198 90 -143 34 -162 54 -149
160 4 39 12 113 18 165 18 177 65 276 151 320 48 24 433 138 675 200 198 50
334 75 745 135 467 68 573 97 756 200 110 63 165 91 182 94 2 1 13 -4 25 -10z
m1897 -898 c84 -15 295 -63 362 -82 36 -10 135 -30 220 -44 129 -21 166 -32
234 -65 68 -34 90 -40 145 -40 35 0 105 -6 154 -14 50 -8 124 -17 165 -21 96
-8 110 -12 110 -35 0 -37 -86 -70 -248 -95 -63 -9 -135 -29 -185 -49 -61 -25
-114 -38 -207 -50 -76 -10 -178 -32 -255 -55 -72 -21 -234 -60 -360 -85 -127
-26 -282 -60 -345 -76 -63 -16 -157 -36 -209 -45 -52 -9 -111 -23 -130 -31
-20 -8 -82 -19 -138 -25 -57 -5 -145 -21 -196 -34 -168 -45 -292 -65 -410 -65
-96 0 -119 -3 -152 -21 -24 -13 -62 -23 -95 -25 -313 -15 -361 -16 -428 -5
-93 14 -187 53 -228 92 -45 43 -91 47 -190 16 -232 -74 -278 -75 -406 -8 -204
107 -272 181 -266 289 l3 57 69 28 c97 38 221 71 450 117 176 36 396 73 1391
236 154 25 322 57 373 70 63 16 141 27 245 33 100 6 164 14 187 24 39 18 256
23 340 8z m1894 -478 c4 -9 1 -22 -6 -29 -21 -20 -274 -93 -383 -110 -55 -9
-136 -25 -180 -36 -160 -41 -242 -57 -335 -67 -53 -6 -123 -20 -155 -31 -33
-12 -148 -43 -255 -69 -107 -27 -251 -67 -320 -89 -69 -23 -163 -46 -210 -52
-73 -10 -494 -88 -727 -135 -39 -8 -149 -24 -245 -35 -95 -11 -243 -29 -329
-39 -342 -44 -619 -50 -947 -21 -110 10 -151 2 -181 -33 -12 -16 -19 -62 -10
-72 5 -4 256 -44 355 -55 40 -5 96 -16 125 -24 35 -10 99 -16 184 -16 72 0
148 -1 170 -2 22 0 130 9 240 21 110 12 281 31 380 42 281 30 411 48 525 70
137 26 373 86 419 105 20 9 155 55 301 104 259 87 585 174 768 205 51 9 118
25 149 36 111 38 546 127 658 135 87 6 107 4 103 -6 -7 -23 -80 -41 -159 -41
-46 0 -86 -6 -103 -14 -15 -8 -70 -22 -123 -31 -53 -9 -112 -22 -132 -28 -20
-7 -153 -41 -296 -75 -143 -35 -287 -71 -320 -81 -33 -10 -82 -22 -110 -26
-27 -3 -138 -38 -245 -76 -107 -38 -220 -74 -250 -79 -30 -5 -116 -34 -192
-64 -76 -31 -173 -63 -215 -71 -43 -9 -132 -27 -198 -40 -66 -14 -154 -30
-195 -36 -41 -5 -112 -18 -157 -29 -45 -10 -162 -26 -260 -34 -98 -9 -212 -23
-253 -32 -195 -42 -289 -45 -460 -15 -864 149 -1254 185 -1743 162 -306 -15
-287 -20 -287 70 0 104 -80 223 -180 270 -28 13 -49 28 -47 33 1 5 27 18 56
29 l53 20 -7 72 c-7 72 -7 73 25 110 23 26 48 41 89 53 73 21 149 9 296 -48
92 -35 116 -49 159 -94 28 -29 69 -63 91 -76 22 -13 71 -52 109 -87 131 -120
222 -148 521 -161 147 -6 191 -12 240 -30 90 -33 259 -44 585 -38 212 4 320
10 420 25 74 11 185 25 245 32 122 12 202 29 410 88 77 22 165 42 195 46 30 4
125 25 210 47 85 23 227 58 315 79 88 22 205 54 260 73 55 19 180 49 278 66
97 18 201 40 230 50 28 10 79 21 112 26 33 4 83 16 110 26 28 11 115 29 195
40 189 25 353 57 415 79 68 25 81 28 151 29 49 1 63 -2 68 -16z m-6314 -30
c75 -16 115 -48 130 -103 13 -47 1 -88 -46 -153 -50 -70 -72 -87 -115 -87 -40
0 -121 46 -139 81 -16 28 -8 82 23 166 14 38 29 81 32 97 5 24 9 27 28 21 12
-4 51 -14 87 -22z m334 -345 c8 -26 6 -28 -24 -28 -47 0 -135 -46 -173 -91
-37 -43 -56 -94 -64 -176 -4 -39 -12 -58 -27 -68 -12 -9 -24 -11 -29 -6 -10
10 64 241 93 288 10 17 49 54 86 82 37 28 79 68 93 89 l26 37 6 -50 c3 -27 9
-62 13 -77z m5984 1 c5 -29 -490 -197 -723 -244 -44 -8 -107 -24 -140 -35 -79
-25 -432 -116 -565 -145 -58 -13 -160 -39 -228 -59 -68 -20 -129 -36 -135 -36
-7 0 -55 -15 -107 -34 -157 -58 -522 -136 -631 -136 -25 0 -71 -9 -101 -19
-35 -12 -91 -20 -152 -22 -122 -5 -132 12 -16 26 25 3 178 37 340 75 162 38
374 86 470 105 277 57 349 77 820 235 245 82 483 158 530 170 47 12 154 44
239 71 194 63 392 87 399 48z m107 -139 c15 -24 -28 -43 -249 -114 -332 -107
-417 -132 -546 -160 -63 -14 -145 -36 -181 -50 -86 -32 -168 -53 -259 -66 -41
-6 -109 -19 -150 -29 -84 -21 -268 -32 -272 -16 -2 6 114 40 257 76 527 134
840 221 944 260 167 65 214 78 317 88 53 6 99 12 102 15 9 10 30 7 37 -4z
m-6658 -30 c14 -11 34 -20 45 -20 33 0 58 -19 58 -45 0 -32 -19 -32 -85 -1
-57 26 -80 49 -71 71 7 20 23 19 53 -5z m669 -50 c84 -52 121 -154 72 -199
-99 -93 -335 65 -263 175 36 56 121 67 191 24z m6164 -138 c33 -27 37 -89 8
-132 -51 -75 -145 -103 -255 -75 -59 15 -76 16 -128 5 -51 -11 -67 -20 -107
-61 -34 -35 -55 -49 -75 -49 -15 0 -65 -9 -110 -20 -44 -10 -112 -22 -150 -25
-227 -21 -835 -111 -1223 -182 -288 -52 -426 -61 -474 -30 -101 66 79 111 749
187 477 55 1026 141 1145 180 193 64 269 94 302 115 20 14 57 29 81 34 24 6
72 24 108 40 75 35 99 37 129 13z m-6802 -120 c71 -34 77 -39 77 -67 0 -25 -4
-30 -25 -31 -48 -1 -116 -17 -179 -40 -35 -14 -72 -22 -83 -18 -37 11 -36 90
2 152 38 62 84 63 208 4z m6260 -428 c27 -18 28 -28 1 -53 -58 -54 -239 -128
-397 -161 -127 -28 -415 -37 -649 -21 -215 15 -255 28 -237 75 12 32 62 42
519 102 193 25 409 54 480 64 141 21 246 18 283 -6z"/>
</g>
</svg>
